{
  "accessors": [
    {
      "bufferView": 0,
      "componentType": 5125,
      "count": 45432,
      "type": "SCALAR"
    },
    {
      "bufferView": 1,
      "componentType": 5126,
      "count": 8763,
      "max": [
        0.060807312439910444,
        0.06553513099166229,
        0.023822631955827102
      ],
      "min": [
        -0.060807312439910444,
        -0.06553513099166229,
        -0.023822631955827102
      ],
      "type": "VEC3"
    },
    {
      "bufferView": 2,
      "componentType": 5126,
      "count": 8763,
      "max": [
        0.9999928576041837,
        0.999999601050604,
        0.9998923564381582
      ],
      "min": [
        -0.9999919952619722,
        -0.9999999871797138,
        -1.0
      ],
      "type": "VEC3"
    },
    {
      "bufferView": 3,
      "componentType": 5126,
      "count": 8763,
      "max": [
        1.0,
        0.545845079339716
      ],
      "min": [
        0.0,
        0.0
      ],
      "type": "VEC2"
    }
  ],
  "asset": {
    "generator": "Adobe Illustrator",
    "version": "2.0"
  },
  "bufferViews": [
    {
      "buffer": 0,
      "byteLength": 181728,
      "target": 34963
    },
    {
      "buffer": 0,
      "byteLength": 105156,
      "byteOffset": 181728,
      "target": 34962
    },
    {
      "buffer": 0,
      "byteLength": 105156,
      "byteOffset": 286884,
      "target": 34962
    },
    {
      "buffer": 0,
      "byteLength": 70104,
      "byteOffset": 392040,
      "target": 34962
    }
  ],
  "buffers": [
    {
      "byteLength": 462144,
      "uri": "data:application/octet-stream;base64,"
    }
  ],
  "materials": [
    {
      "doubleSided": true,
      "pbrMetallicRoughness": {
        "baseColorFactor": [
          0.8125,
          0.9726561903953552,
          0.2382812201976776,
          1.0
        ],
        "roughnessFactor": 0.4000000059604645
      }
    }
  ],
  "meshes": [
    {
      "primitives": [
        {
          "attributes": {
            "NORMAL": 2,
            "POSITION": 1,
            "TEXCOORD_0": 3
          },
          "indices": 0,
          "material": 0,
          "mode": 4
        }
      ]
    }
  ],
  "nodes": [
    {
      "mesh": 0
    }
  ],
  "scenes": [
    {
      "nodes": [
        0
      ]
    }
  ]
}
