{
  "accessors": [
    {
      "bufferView": 0,
      "componentType": 5125,
      "count": 51270,
      "type": "SCALAR"
    },
    {
      "bufferView": 1,
      "componentType": 5126,
      "count": 10024,
      "max": [
        0.04806290583016764,
        0.044258884897429185,
        0.015630514299236477
      ],
      "min": [
        -0.048062905830167646,
        -0.044258884897429185,
        -0.015630514299236477
      ],
      "type": "VEC3"
    },
    {
      "bufferView": 2,
      "componentType": 5126,
      "count": 10024,
      "max": [
        0.999985332660539,
        0.9999999781649672,
        1.0
      ],
      "min": [
        -0.9999958284888897,
        -0.9999998470296168,
        -1.0
      ],
      "type": "VEC3"
    },
    {
      "bufferView": 3,
      "componentType": 5126,
      "count": 10024,
      "max": [
        1.0,
        0.9518511858264566
      ],
      "min": [
        0.0,
        0.0
      ],
      "type": "VEC2"
    }
  ],
  "asset": {
    "generator": "Adobe Illustrator",
    "version": "2.0"
  },
  "bufferViews": [
    {
      "buffer": 0,
      "byteLength": 205080,
      "target": 34963
    },
    {
      "buffer": 0,
      "byteLength": 120288,
      "byteOffset": 205080,
      "target": 34962
    },
    {
      "buffer": 0,
      "byteLength": 120288,
      "byteOffset": 325368,
      "target": 34962
    },
    {
      "buffer": 0,
      "byteLength": 80192,
      "byteOffset": 445656,
      "target": 34962
    }
  ],
  "buffers": [
    {
      "byteLength": 525848,
      "uri": "data:application/octet-stream;base64,"
    }
  ],
  "materials": [
    {
      "doubleSided": true,
      "pbrMetallicRoughness": {
        "baseColorFactor": [
          0.8125,
          0.9726561903953552,
          0.2382812201976776,
          1.0
        ],
        "roughnessFactor": 0.4000000059604645
      }
    }
  ],
  "meshes": [
    {
      "primitives": [
        {
          "attributes": {
            "NORMAL": 2,
            "POSITION": 1,
            "TEXCOORD_0": 3
          },
          "indices": 0,
          "material": 0,
          "mode": 4
        }
      ]
    }
  ],
  "nodes": [
    {
      "mesh": 0
    }
  ],
  "scenes": [
    {
      "nodes": [
        0
      ]
    }
  ]
}
