<?xml version="1.0" encoding="UTF-8"?>
<svg id="Layer_2" data-name="Layer 2" xmlns="http://www.w3.org/2000/svg" viewBox="0 0 286.52 279.59">
  <defs>
    <style>
      .cls-1 {
        fill: #fff;
      }
    </style>
  </defs>
  <g id="Layer_1-2" data-name="Layer 1">
    <g id="wa9ppU.tif">
      <path class="cls-1" d="M286.52,134.19v16.78c-.91,3.59-.73,7.68-1.19,11.39-6.68,53.84-46.31,100.83-97.8,117.23h-3.36c-2.47-1.25-4.34-2.41-5.01-5.34-.62-13.81.72-28.19,0-41.94-.52-9.82-2.55-18.7-9.53-25.98,23.18-2.09,47.26-10.91,57.7-33.18,10.66-22.74,11.22-56.74-7.26-75.67,3.46-9.31,3.59-19.69,1.29-29.29-.42-1.77-2.17-8.15-3.47-8.83-5.91-1.41-12.53,1.34-18.05,3.54-7.41,2.96-14.05,7.28-20.99,10.93-23.72-6.18-47.78-5.78-71.55-.05-11.67-6.88-25.41-15.53-39.4-14.46-4.54,12.49-6.19,25.48-1.3,38.16-17.07,17.63-17.58,46.32-10.11,68.45,9.44,27.96,33.05,37.41,60.55,40.67-5.56,5.21-7.6,12.15-9.31,19.34-11.44,4.36-24.2,5.79-34.01-2.86-5.8-5.11-8.21-12.82-14.57-17.86-5.01-3.97-14.9-8.84-20.71-4.49l-.17,1.27c3.06,5.38,8.76,7.19,12.78,11.88,7.99,9.34,7.98,21.23,19.07,27.91,5.08,3.05,10.07,4.13,15.9,4.79,7.19.82,14.5.79,21.52-1.11-1.09,8.55,1.64,18.82.52,27.07-.49,3.6-2.35,5.61-5.54,7.04h-3.36c-43.91-14.04-80.13-50.72-93.12-95.07C-25.69,76.14,72.51-24.15,181.5,5.16c57.28,15.4,101.31,68.03,104.44,127.67l.59,1.35Z"/>
    </g>
  </g>
</svg>