<?xml version="1.0" encoding="UTF-8"?>
<svg id="Layer_2" data-name="Layer 2" xmlns="http://www.w3.org/2000/svg" viewBox="0 0 286.57 287.22">
  <defs>
    <style>
      .cls-1 {
        fill: #fff;
      }
    </style>
  </defs>
  <g id="Layer_1-2" data-name="Layer 1">
    <path class="cls-1" d="M286.57,134.82v17.37c-6.98,104.88-121.41,169-214.35,116.09C-22.49,214.38-24.46,77.42,68.73,20.83s211.9,7.07,217.84,113.99ZM166.14,143.79v56.32c0,2.51,2.1,5.03,4.75,5.34,12.11,1.41,26.84-1.08,39.23,0,1.64-.04,3.02-.95,3.77-2.4l.41-96.51-2.53-3.08c-21.33-14.97-41.2-33.62-62.49-48.43-3.23-2.25-5.43-4.78-9.42-1.7l-64,51.97-.96,2.96-.07,91.31c.06,3.13,1.53,5.49,4.77,5.88,11.91,1.4,26.47-1.08,38.67,0,2.15.39,4.75-3.18,4.75-4.78v-56.88h43.13Z"/>
  </g>
</svg>