<?xml version="1.0" encoding="UTF-8"?>
<svg id="Layer_2" data-name="Layer 2" xmlns="http://www.w3.org/2000/svg" viewBox="0 0 290.49 290.44">
  <defs>
    <style>
      .cls-1 {
        fill: #e3e3e3;
      }

      .cls-2 {
        fill: #e5e5e5;
      }

      .cls-3 {
        fill: #fff;
      }

      .cls-4 {
        fill: #e9e9e9;
      }

      .cls-5 {
        fill: #e3e4e3;
      }

      .cls-6 {
        fill: #e8e8e8;
      }
    </style>
  </defs>
  <g id="Layer_1-2" data-name="Layer 1">
    <g id="cN32MG.tif">
      <g>
        <path class="cls-4" d="M151.31,0v.63c-3.77,1.8-8.87,1.79-12.64,0v-.63h12.64Z"/>
        <path class="cls-3" d="M138.66.63c4.14-.14,8.5-.12,12.64,0,1.89.05,3.81-.1,5.69,0l3.16.63c74.36,6.73,131.07,71.68,130.24,146.04l-.63,4.43c-.52,53.36-36.53,104.04-84.49,125.72C114,318.71,8.23,257.08.84,157.42l-.63-3.16c-.27-5.69-.28-12.65,0-18.33l.63-3.16C6.22,64.44,61.1,7.3,129.81,1.26l3.16-.63c1.88-.11,3.8.06,5.69,0ZM87.94,67.81c-19.43,2.84-19.08,31.4,1.11,33.34,28.74,2.76,27.85-37.57-1.11-33.34ZM193.67,213.69h31.93c.69,0,.91-1.54.98-2.18,2.23-19.02-1.31-43.17-.67-62.61-1.62-25.77-24.34-42.64-49.45-34.29-7.79,2.59-12.67,8.16-17.56,14.37v-13.91h-32.24v98.63h32.24v-59.74c0-.57,1.58-4.73,2.01-5.58,6.27-12.36,25.31-14.37,30.72-.6.33.83,2.04,6.43,2.04,6.81v59.11ZM107.69,115.06h-32.24v98.63h32.24v-98.63Z"/>
        <path class="cls-6" d="M289.76,151.73c.01-1.39-.47-3.56.63-4.43-.02,1.39.47,3.56-.63,4.43Z"/>
        <path class="cls-2" d="M132.97.63c-.43.03-1.91.52-3.16.63.54-1.02,2.15-.6,3.16-.63Z"/>
        <path class="cls-1" d="M160.16,1.26c-1.01-.04-2.62.39-3.16-.63,1.44.08,2.71.59,3.16.63Z"/>
        <path class="cls-6" d="M.21,135.93c.07-1.43.6-2.78.63-3.16-.04,1.01.39,2.62-.63,3.16Z"/>
        <path class="cls-5" d="M.84,157.42c-.03-.35-.56-1.74-.63-3.16,1.02.54.6,2.15.63,3.16Z"/>
      </g>
    </g>
  </g>
</svg>