<?xml version="1.0" encoding="UTF-8"?>
<svg id="Layer_2" data-name="Layer 2" xmlns="http://www.w3.org/2000/svg" viewBox="0 0 281.45 281.31">
  <defs>
    <style>
      .cls-1 {
        fill: #fff;
      }
    </style>
  </defs>
  <g id="Layer_1-2" data-name="Layer 1">
    <g id="Layer_2-2" data-name="Layer 2">
      <path class="cls-1" d="M281.36,132.48l-3.13-21.34c-11.37-53.56-54.44-96.64-107.98-108.02l-21.33-3.12h-16.48C15.79,6.69-42.87,147.52,36.26,235.01c83.62,92.46,238.01,37.54,245.1-86.04.31-5.44-.23-11.04,0-16.49ZM193.99,166.29c-11.7,11.08-27.67,24.32-40.41,34.34-9.96,7.84-15.84,7.83-25.8,0-12.74-10.02-28.71-23.26-40.41-34.34-7.52-7.12-10.13-18.22-1.35-25.55,14.95-12.48,27.47,7.32,38.72,14.83v-67.89c0-.38,2.39-5.3,2.84-5.96,5.99-8.82,20.21-8.82,26.2,0,.45.66,2.84,5.58,2.84,5.96v67.89l19.7-16.3c17-9.71,34.14,11.44,17.67,27.02Z"/>
    </g>
  </g>
</svg>