<?xml version="1.0" encoding="UTF-8"?>
<svg id="Layer_2" data-name="Layer 2" xmlns="http://www.w3.org/2000/svg" viewBox="0 0 826.78 629.72">
  <defs>
    <style>
      .cls-1 {
        font-family: CallofOpsDutyII, 'Call of Ops Duty II';
      }

      .cls-1, .cls-2 {
        font-size: 155px;
      }

      .cls-3 {
        fill: #fff;
      }

      .cls-2 {
        font-family: UTBoldonseDemo-Regular, 'UT Boldonse Demo';
      }
    </style>
  </defs>
  <g id="Layer_1-2" data-name="Layer 1">
    <text class="cls-2" transform="translate(0 208.74)"><tspan x="0" y="0" xml:space="preserve">Flag    ps</tspan></text>
    <g>
      <path d="M486.54,83.43c-.67-.22-1.36-.51-2.05-.88-4.47-2.41-8.33-5.73-12.79-8.14-1.71-.92-2.97-2.33-3.77-3.95-21.46-12.44-47.71-13.73-70.5-2.71-1.91.92-11.11,7.11-12.01,6.41,1.79-16.82-1.97-30.7,9.43-45.06,18.9-23.8,57.89-22.42,73.53,4.06.86,1.45,1.98,3.72,3.04,6.22,3.84-1.52,7.92-2.49,12.09-3.09-.02-.06-.04-.11-.06-.17-13.91-38.08-65.75-48.32-93.83-19.7-19.61,19.98-15.91,43.27-15.99,69.08-34.28,41.55-15.5,107.58,37.67,120.79,71.99,17.88,121.22-65.15,75.32-121.58-.03-.42-.04-.84-.06-1.27ZM438.73,154.91h-17.25c.48-3.47,3.47-18.05,2.18-20.23-.55-.92-2.76-1.22-4.12-4.88-5.32-14.39,14.12-21.52,20.63-10.45,4.05,6.9.53,11.86-3.83,17.17l2.38,18.38Z"/>
      <path class="cls-3" d="M474.8,74.93c-22.53-10.67-52.09-12.56-77.37-4.65-1.91.6-11.11,4.6-12.01,4.14,1.79-10.88-1.97-19.85,9.43-29.14,18.9-15.39,57.89-14.5,73.53,2.62,2.29,2.51,6.43,8.79,6.43,11.56v15.46Z"/>
      <path class="cls-3" d="M438.73,154.91h-17.25c.48-3.47,3.47-18.05,2.18-20.23-.55-.92-2.76-1.22-4.12-4.88-5.32-14.39,14.12-21.52,20.63-10.45,4.05,6.9.53,11.86-3.83,17.17l2.38,18.38Z"/>
    </g>
    <text class="cls-1" transform="translate(10.5 474.04)"><tspan x="0" y="0" xml:space="preserve">Flag    ps</tspan></text>
    <g>
      <path d="M307.26,361.93c17.23-17.55,49.02-11.27,57.55,12.09,3.45,9.44,1.32,19.93,1.94,29.8,28.16,34.61-2.04,85.54-46.2,74.58-32.61-8.1-44.13-48.61-23.1-74.09.05-15.83-2.22-30.12,9.81-42.37ZM359.52,397.83v-14.67c0-2.63-2.54-8.58-3.94-10.97-9.59-16.24-33.51-17.08-45.1-2.49-6.99,8.8-4.68,17.32-5.78,27.64.55.43,6.2-3.36,7.37-3.93,15.51-7.5,33.64-5.71,47.46,4.41ZM337.39,446.89l-1.46-11.28c2.67-3.26,4.83-6.3,2.35-10.53-3.99-6.79-15.92-2.42-12.66,6.41.83,2.25,2.19,2.43,2.52,3,.79,1.33-1.05,10.28-1.34,12.41h10.58Z"/>
      <path class="cls-3" d="M359.52,397.83c-13.82-6.55-31.95-7.7-47.46-2.85-1.17.37-6.82,2.82-7.37,2.54,1.1-6.67-1.21-12.18,5.78-17.87,11.59-9.44,35.51-8.89,45.1,1.61,1.41,1.54,3.94,5.39,3.94,7.09v9.49Z"/>
      <path class="cls-3" d="M337.39,446.89h-10.58c.29-2.13,2.13-11.07,1.34-12.41-.34-.57-1.69-.75-2.52-3-3.26-8.82,8.66-13.2,12.66-6.41,2.49,4.23.33,7.27-2.35,10.53l1.46,11.28Z"/>
    </g>
  </g>
</svg>