<?xml version="1.0" encoding="UTF-8"?>
<svg id="Layer_2" data-name="Layer 2" xmlns="http://www.w3.org/2000/svg" viewBox="0 0 510.61 511.78">
  <defs>
    <style>
      .cls-1 {
        fill: #fff;
      }
    </style>
  </defs>
  <g id="Layer_1-2" data-name="Layer 1">
    <path class="cls-1" d="M510.61,240.23v30.95c-12.44,186.89-216.33,301.12-381.93,206.86C-40.07,381.98-43.58,137.95,122.46,37.12c164.11-99.66,377.57,12.59,388.16,203.11ZM296.03,256.2v100.35c0,4.47,3.74,8.96,8.46,9.51,21.58,2.51,47.82-1.93,69.91,0,2.92-.08,5.38-1.7,6.71-4.27l.73-171.97-4.5-5.48c-38.01-26.68-73.42-59.9-111.35-86.3-5.75-4-9.68-8.52-16.79-3.03l-114.04,92.59-1.71,5.28-.13,162.7c.1,5.58,2.73,9.79,8.5,10.47,21.22,2.5,47.17-1.93,68.91,0,3.83.7,8.46-5.66,8.46-8.51v-101.35h76.85Z"/>
  </g>
</svg>