<?xml version="1.0" encoding="UTF-8"?>
<svg id="Layer_2" data-name="Layer 2" xmlns="http://www.w3.org/2000/svg" viewBox="0 0 287.23 287.22">
  <defs>
    <style>
      .cls-1 {
        fill: #fff;
      }
    </style>
  </defs>
  <g id="Layer_1-2" data-name="Layer 1">
    <g>
      <path class="cls-1" d="M151.42,115.07c1.62,1.69.91,4.77,5.44,5.22,7.39.72,3.89-8.42,11.87-5.02,6.97,2.97,12.56,12.68,10.57,20.42l-43.31.4c-2.36-5.24.73-12.47,4.39-16.37,1.88-2.01,8.71-7.07,11.03-4.65Z"/>
      <path class="cls-1" d="M153.74,87.08c19.72-4.17,20.89,24.66,2.93,23.84-14.14-.65-14.37-21.42-2.93-23.84Z"/>
      <rect class="cls-1" x="98.84" y="154.31" width="81.1" height="6.8"/>
      <rect class="cls-1" x="98.84" y="173.49" width="81.1" height="8.35"/>
      <rect class="cls-1" x="98.84" y="193.44" width="43.41" height="7.11"/>
    </g>
    <path class="cls-1" d="M143.62,0C64.3,0,0,64.29,0,143.61s64.3,143.61,143.62,143.61,143.61-64.3,143.61-143.61S222.93,0,143.62,0ZM197.07,229.54h-115.35V87.87l24.77-30.2h90.58v171.87Z"/>
  </g>
</svg>