<?xml version="1.0" encoding="UTF-8"?>
<svg id="Layer_2" data-name="Layer 2" xmlns="http://www.w3.org/2000/svg" viewBox="0 0 320.62 186.75">
  <defs>
    <style>
      .cls-1 {
        fill: #cedd3e;
      }
    </style>
  </defs>
  <g id="Layer_1-2" data-name="Layer 1">
    <g id="Layer_2-2" data-name="Layer 2">
      <g>
        <path class="cls-1" d="M139.58,92c1.23-.55,3.84-.92,6.69-1.04,1.42-.06,2.91-.05,4.3.03,1.77.11,3.27.33,4.86.52,3.17.37,6.93.5,10.51.35,1.93-.08,3.73-.26,5.67-.33,1.76-.07,3.71-.04,5.12.21,1.32.23,2.02.59,2.7.91.78.37,1.44.76,1.59,1.17.14.35-.12.71-.9,1.02s-2.11.54-3.66.68-3.25.21-4.93.27c-1.88.06-3.87.11-5.73,0-3.35-.19-5.22-.85-7.46-1.34-2.37-.52-5.25-.94-8.5-1.19s-7.45-.31-9.39-.99c-.4-.14-.63-.29-.64-.45,0-.01-.1-.01-.1,0,.02.33.95.61,2.16.81,1.42.24,3.19.35,4.92.45.94.05,1.88.11,2.8.17.87.06,1.71.14,2.52.23,1.62.18,3.12.39,4.48.64s2.47.51,3.61.79c1.06.26,2.16.52,3.56.7,1.55.21,3.35.27,5.18.25.98,0,1.95-.04,2.91-.07.84-.03,1.67-.06,2.5-.11,1.59-.09,3.18-.22,4.4-.45s1.99-.56,2.27-.9c.3-.37.07-.75-.44-1.11-.27-.19-.62-.38-1-.56s-.74-.35-1.2-.52c-.4-.15-.87-.29-1.48-.4s-1.38-.19-2.2-.23c-1.83-.09-3.7.01-5.44.13-.98.07-1.95.14-2.95.19-.93.05-1.88.07-2.84.08-1.92.01-3.84-.05-5.64-.18s-3.41-.37-5.12-.56c-1.41-.16-2.9-.25-4.5-.26-2.89,0-5.79.27-7.6.73-.43.11-.8.23-1.09.36-.03.01.06.02.08,0h0Z"/>
        <path class="cls-1" d="M138.71,91.9c1.28-.59,4-.99,6.97-1.12,1.48-.06,3.03-.06,4.48.03,1.84.11,3.41.36,5.06.56,3.3.4,7.21.54,10.95.37,2.01-.09,3.88-.28,5.9-.36,1.84-.07,3.87-.04,5.33.23,1.37.25,2.11.63,2.81.98.81.4,1.5.82,1.66,1.25.14.37-.12.76-.94,1.1s-2.2.58-3.82.73-3.39.23-5.13.29c-1.96.07-4.03.12-5.97,0-3.49-.21-5.44-.92-7.77-1.44-2.47-.56-5.47-1.01-8.86-1.28-3.38-.27-7.76-.33-9.78-1.06-.41-.15-.65-.31-.66-.49,0-.01-.1-.01-.1,0,.02.35.99.66,2.25.87,1.47.25,3.32.38,5.12.48.98.06,1.96.11,2.91.19.9.07,1.78.15,2.63.25,1.68.19,3.25.42,4.67.69s2.57.55,3.76.85c1.1.28,2.25.56,3.7.76,1.62.22,3.49.29,5.39.27,1.02-.01,2.03-.04,3.04-.08.87-.03,1.74-.07,2.6-.12,1.66-.09,3.31-.24,4.59-.48s2.07-.6,2.36-.97c.32-.4.07-.8-.46-1.19-.28-.21-.64-.41-1.04-.6s-.78-.38-1.25-.56c-.41-.16-.9-.31-1.54-.43s-1.44-.21-2.29-.25c-1.91-.09-3.85.01-5.66.14-1.02.07-2.03.15-3.07.2-.97.05-1.96.08-2.95.09-1.99.02-4-.05-5.88-.19s-3.55-.4-5.33-.6c-1.46-.17-3.02-.27-4.69-.27-3.01,0-6.03.29-7.92.79-.45.12-.83.25-1.14.39-.03.01.06.02.09.01h0Z"/>
        <path class="cls-1" d="M137.81,91.78c1.34-.63,4.17-1.07,7.26-1.21,1.54-.07,3.15-.06,4.66.04,1.92.12,3.55.39,5.27.6,3.44.43,7.51.58,11.4.4,2.09-.1,4.04-.3,6.15-.38,1.91-.08,4.03-.04,5.56.24,1.43.27,2.2.68,2.93,1.05.85.43,1.56.88,1.73,1.35.15.4-.13.82-.98,1.18s-2.29.62-3.98.79-3.53.25-5.34.31c-2.04.07-4.19.13-6.22,0-3.63-.22-5.66-.99-8.1-1.55-2.57-.6-5.7-1.09-9.23-1.38-3.52-.29-8.08-.36-10.19-1.14-.43-.16-.68-.34-.69-.52,0-.01-.1-.01-.1,0,.02.38,1.04.71,2.34.94,1.54.27,3.46.4,5.34.52,1.02.06,2.04.12,3.03.2.94.07,1.86.16,2.74.27,1.75.2,3.38.45,4.87.74s2.68.59,3.92.92c1.15.3,2.34.6,3.86.81,1.69.24,3.64.31,5.62.29,1.06-.01,2.12-.05,3.16-.08.91-.03,1.82-.07,2.71-.12,1.73-.1,3.45-.25,4.78-.52,1.36-.27,2.16-.65,2.46-1.04.33-.43.07-.86-.48-1.28-.3-.22-.67-.44-1.08-.65s-.81-.41-1.3-.6c-.43-.17-.94-.34-1.61-.47s-1.5-.22-2.39-.27c-1.99-.1-4.01.01-5.9.15-1.06.08-2.11.16-3.2.21-1.01.05-2.04.08-3.08.09-2.08.02-4.17-.05-6.12-.21s-3.7-.43-5.55-.65c-1.53-.18-3.14-.29-4.89-.3-3.13,0-6.28.31-8.25.85-.47.13-.87.27-1.18.42-.03.01.06.02.09.01h0Z"/>
        <path class="cls-1" d="M136.87,91.66c1.39-.68,4.34-1.15,7.56-1.3,1.6-.07,3.29-.07,4.86.04,2,.13,3.7.41,5.49.64,3.59.46,7.83.62,11.88.43,2.18-.1,4.21-.32,6.4-.41,1.99-.08,4.19-.05,5.79.26,1.49.29,2.29.73,3.05,1.13.88.46,1.62.95,1.8,1.45.15.43-.13.88-1.02,1.27s-2.39.67-4.14.85-3.67.26-5.57.34c-2.13.08-4.37.14-6.48,0-3.78-.24-5.9-1.06-8.43-1.67-2.68-.64-5.94-1.17-9.61-1.48-3.67-.31-8.42-.38-10.62-1.23-.45-.17-.71-.36-.72-.56,0-.02-.11-.02-.11,0,.02.41,1.08.76,2.44,1.01,1.6.29,3.6.44,5.56.56,1.06.07,2.12.13,3.16.22.98.08,1.93.18,2.85.29,1.83.22,3.52.49,5.07.8s2.79.64,4.08.98c1.2.32,2.44.64,4.02.87,1.76.25,3.79.33,5.85.31,1.11-.01,2.2-.05,3.29-.09.95-.04,1.89-.08,2.82-.13,1.8-.11,3.59-.27,4.98-.56,1.41-.29,2.25-.7,2.56-1.12.34-.46.08-.93-.5-1.38-.31-.24-.7-.47-1.13-.7s-.84-.44-1.35-.65c-.45-.18-.98-.36-1.67-.5s-1.56-.24-2.49-.29c-2.07-.11-4.18.02-6.15.16-1.11.08-2.2.17-3.33.23-1.05.06-2.13.09-3.21.1-2.16.02-4.34-.06-6.38-.23s-3.85-.46-5.79-.7c-1.59-.19-3.27-.32-5.09-.32-3.26,0-6.55.34-8.59.91-.49.14-.9.29-1.23.45-.03.01.06.03.09.01h0Z"/>
        <path class="cls-1" d="M135.9,91.54c1.45-.73,4.52-1.24,7.87-1.39,1.67-.08,3.42-.07,5.06.04,2.08.14,3.86.45,5.72.69,3.73.49,8.15.67,12.37.46,2.27-.11,4.39-.35,6.67-.44,2.07-.09,4.37-.05,6.03.28,1.55.31,2.38.79,3.18,1.21.92.5,1.69,1.02,1.88,1.56.16.46-.14.95-1.06,1.36s-2.49.72-4.31.91-3.83.28-5.8.36c-2.22.09-4.55.15-6.75,0-3.94-.26-6.15-1.14-8.78-1.8-2.79-.69-6.18-1.26-10.01-1.6-3.82-.33-8.77-.41-11.06-1.32-.47-.18-.74-.39-.75-.6,0-.02-.11-.02-.11,0,.02.44,1.12.82,2.54,1.09,1.67.32,3.75.47,5.79.6,1.1.07,2.21.14,3.29.23,1.02.09,2.01.19,2.97.31,1.9.23,3.67.53,5.28.86s2.91.69,4.25,1.06c1.25.35,2.54.69,4.19.94,1.83.27,3.95.36,6.1.33,1.15-.01,2.3-.05,3.43-.1.99-.04,1.97-.08,2.94-.14,1.88-.12,3.74-.29,5.19-.6s2.34-.75,2.67-1.2c.36-.5.08-1-.52-1.48-.32-.26-.73-.5-1.18-.75s-.88-.47-1.41-.7c-.47-.2-1.02-.39-1.74-.54s-1.63-.26-2.59-.31c-2.16-.11-4.35.02-6.4.17-1.15.09-2.29.18-3.47.25-1.09.06-2.21.1-3.34.11-2.25.02-4.52-.06-6.64-.24s-4.01-.5-6.03-.75c-1.65-.21-3.41-.34-5.3-.34-3.4,0-6.82.36-8.95.98-.51.15-.94.31-1.28.48-.03.02.07.03.1.01h0Z"/>
        <path class="cls-1" d="M134.88,91.4c1.51-.78,4.71-1.33,8.2-1.5,1.74-.09,3.56-.08,5.27.04,2.17.15,4.02.48,5.96.74,3.89.53,8.49.72,12.89.5,2.36-.12,4.57-.37,6.95-.48,2.16-.1,4.55-.06,6.28.3,1.62.34,2.48.85,3.31,1.31.96.53,1.76,1.09,1.96,1.67.17.5-.14,1.02-1.11,1.47s-2.59.77-4.49.98-3.99.31-6.04.39c-2.31.09-4.74.16-7.03,0-4.11-.28-6.4-1.23-9.15-1.93-2.9-.74-6.44-1.35-10.43-1.72-3.98-.36-9.13-.45-11.52-1.42-.49-.2-.77-.42-.78-.65,0-.02-.12-.02-.12,0,.02.47,1.17.88,2.65,1.17,1.74.34,3.91.5,6.03.65,1.15.08,2.31.15,3.43.25,1.06.09,2.1.2,3.1.33,1.98.25,3.82.57,5.5.92s3.03.74,4.43,1.14c1.3.37,2.65.75,4.36,1.01,1.91.29,4.11.39,6.35.36,1.2-.01,2.39-.06,3.57-.11,1.03-.04,2.05-.09,3.06-.15,1.95-.12,3.89-.32,5.4-.65s2.44-.8,2.78-1.29c.37-.53.08-1.08-.54-1.59-.33-.27-.76-.54-1.23-.8s-.91-.51-1.47-.75c-.49-.21-1.07-.42-1.82-.58s-1.69-.28-2.7-.33c-2.25-.12-4.53.02-6.67.18-1.2.09-2.39.2-3.62.27-1.14.07-2.31.1-3.48.11-2.35.02-4.71-.07-6.92-.26s-4.18-.53-6.28-.81c-1.72-.22-3.55-.36-5.52-.37-3.54,0-7.1.39-9.33,1.05-.53.16-.98.33-1.34.52-.03.02.07.03.1.01h0Z"/>
        <path class="cls-1" d="M133.82,91.25c1.57-.84,4.91-1.43,8.54-1.61,1.81-.09,3.71-.08,5.49.05,2.26.16,4.18.51,6.2.8,4.05.57,8.85.78,13.43.54,2.46-.13,4.76-.4,7.24-.51,2.25-.1,4.74-.06,6.54.33,1.69.36,2.59.91,3.45,1.4,1,.57,1.83,1.17,2.04,1.8.17.54-.15,1.09-1.15,1.58s-2.7.83-4.68,1.05-4.15.33-6.29.42c-2.41.1-4.94.17-7.32,0-4.28-.3-6.67-1.32-9.53-2.08-3.02-.8-6.71-1.46-10.86-1.84-4.15-.39-9.51-.48-12-1.52-.51-.21-.8-.45-.82-.7,0-.02-.12-.02-.12,0,.03.51,1.22.95,2.76,1.26,1.81.37,4.07.54,6.29.7,1.2.08,2.4.16,3.57.27,1.11.1,2.18.22,3.23.36,2.07.27,3.98.61,5.73.99s3.16.79,4.61,1.22c1.35.4,2.76.8,4.54,1.09,1.99.32,4.28.41,6.61.39,1.25-.02,2.49-.06,3.72-.11,1.07-.05,2.14-.1,3.19-.17,2.04-.13,4.06-.34,5.63-.7s2.54-.87,2.89-1.39c.39-.57.09-1.16-.57-1.71-.35-.3-.79-.58-1.28-.87s-.95-.54-1.53-.8c-.51-.23-1.11-.45-1.89-.62s-1.76-.3-2.81-.36c-2.34-.13-4.72.02-6.95.2-1.25.1-2.49.21-3.77.29-1.19.07-2.4.11-3.62.12-2.45.02-4.91-.07-7.21-.28s-4.36-.57-6.54-.87c-1.8-.24-3.7-.39-5.75-.39-3.69,0-7.4.42-9.71,1.13-.55.17-1.02.36-1.39.56-.03.02.07.03.11.02h0Z"/>
        <path class="cls-1" d="M132.72,91.09c1.64-.91,5.11-1.54,8.9-1.73,1.89-.1,3.87-.09,5.72.05,2.35.18,4.36.55,6.46.86,4.22.62,9.22.83,13.99.58,2.56-.14,4.96-.43,7.54-.55,2.34-.11,4.94-.06,6.81.35,1.76.39,2.69.98,3.59,1.51,1.04.62,1.91,1.26,2.12,1.94.18.58-.15,1.18-1.2,1.69s-2.81.89-4.88,1.13-4.33.35-6.55.45c-2.51.11-5.14.18-7.63,0-4.45-.32-6.95-1.42-9.93-2.23-3.15-.86-6.99-1.57-11.31-1.98-4.32-.42-9.91-.51-12.5-1.64-.53-.23-.84-.48-.85-.75,0-.02-.13-.02-.13,0,.03.54,1.27,1.02,2.87,1.35,1.88.39,4.24.58,6.55.75,1.25.09,2.5.18,3.72.29,1.15.11,2.28.24,3.36.38,2.15.29,4.15.65,5.97,1.07s3.29.85,4.8,1.32c1.41.43,2.88.86,4.73,1.17,2.07.34,4.46.45,6.89.42,1.3-.02,2.59-.07,3.88-.12,1.12-.05,2.23-.1,3.32-.18,2.12-.14,4.23-.36,5.86-.75s2.64-.93,3.01-1.49c.4-.62.09-1.24-.59-1.84-.36-.32-.82-.63-1.33-.93s-.99-.59-1.59-.86c-.53-.25-1.16-.48-1.97-.67s-1.84-.32-2.93-.39c-2.44-.14-4.92.02-7.24.21-1.3.11-2.59.23-3.93.31-1.24.08-2.5.12-3.77.13-2.55.02-5.11-.08-7.51-.3s-4.54-.62-6.81-.93c-1.87-.26-3.85-.42-5.99-.42-3.84,0-7.71.45-10.12,1.22-.58.18-1.07.38-1.45.6-.03.02.08.04.11.02h0Z"/>
        <path class="cls-1" d="M131.57,90.92c1.71-.97,5.32-1.65,9.27-1.86,1.97-.11,4.03-.09,5.96.06,2.45.19,4.54.6,6.73.93,4.4.66,9.6.9,14.57.62,2.67-.15,5.17-.46,7.85-.59,2.44-.12,5.14-.07,7.1.38,1.83.42,2.81,1.05,3.74,1.62,1.08.66,1.99,1.36,2.21,2.08.19.62-.16,1.27-1.25,1.82s-2.93.96-5.08,1.21-4.51.38-6.83.48c-2.61.11-5.36.2-7.95,0-4.64-.35-7.24-1.53-10.34-2.4-3.28-.92-7.28-1.68-11.79-2.13-4.5-.45-10.32-.55-13.02-1.76-.55-.25-.87-.52-.88-.81,0-.02-.13-.02-.13,0,.03.58,1.32,1.09,2.99,1.45,1.96.42,4.42.63,6.82.81,1.3.1,2.61.19,3.88.31,1.2.11,2.37.25,3.5.41,2.24.31,4.32.7,6.22,1.15s3.42.92,5,1.41c1.47.46,2.99.93,4.93,1.26,2.15.37,4.65.48,7.18.45,1.36-.02,2.7-.07,4.04-.13,1.16-.05,2.32-.11,3.46-.19,2.21-.16,4.4-.39,6.11-.8s2.75-1,3.14-1.61c.42-.66.09-1.34-.62-1.98-.38-.34-.86-.67-1.38-1s-1.03-.63-1.66-.93c-.55-.26-1.2-.52-2.05-.72s-1.91-.35-3.05-.42c-2.54-.15-5.12.02-7.54.23-1.36.12-2.7.24-4.09.33-1.29.08-2.61.13-3.93.14-2.65.03-5.33-.08-7.82-.32s-4.73-.66-7.1-1c-1.95-.28-4.01-.45-6.24-.46-4,0-8.03.49-10.54,1.31-.6.2-1.11.41-1.51.64-.04.02.08.04.11.02h0Z"/>
        <path class="cls-1" d="M130.37,90.73c1.78-1.05,5.55-1.78,9.66-2.01,2.05-.11,4.2-.1,6.21.06,2.55.2,4.73.64,7.01.99,4.58.71,10,.96,15.18.67,2.78-.16,5.38-.5,8.18-.64,2.54-.13,5.36-.07,7.39.4,1.91.45,2.92,1.13,3.89,1.75,1.13.71,2.07,1.46,2.3,2.24.2.67-.17,1.36-1.3,1.96s-3.05,1.03-5.29,1.31-4.69.41-7.11.52c-2.72.12-5.58.21-8.28,0-4.83-.37-7.54-1.64-10.77-2.58-3.42-.99-7.58-1.81-12.28-2.29-4.69-.48-10.75-.59-13.56-1.89-.57-.26-.91-.56-.92-.87,0-.02-.14-.02-.14,0,.03.63,1.38,1.18,3.12,1.56,2.04.46,4.6.67,7.1.87,1.35.1,2.71.2,4.04.34,1.25.12,2.47.27,3.65.44,2.33.34,4.5.76,6.48,1.23s3.57.99,5.21,1.52c1.53.5,3.12,1,5.14,1.35,2.24.39,4.84.52,7.48.48,1.41-.02,2.82-.08,4.21-.14,1.21-.06,2.42-.12,3.6-.21,2.3-.17,4.59-.42,6.36-.87s2.87-1.08,3.27-1.73c.44-.71.1-1.44-.64-2.13-.39-.37-.89-.72-1.44-1.08s-1.07-.68-1.73-1c-.57-.28-1.25-.56-2.14-.78s-1.99-.37-3.18-.45c-2.64-.17-5.34.02-7.85.25-1.41.13-2.81.26-4.26.36-1.34.09-2.72.14-4.09.15-2.77.03-5.55-.09-8.15-.35s-4.92-.71-7.39-1.08c-2.03-.3-4.18-.49-6.5-.49-4.17,0-8.36.52-10.98,1.41-.63.21-1.16.44-1.58.69-.04.02.08.04.12.02h0Z"/>
        <path class="cls-1" d="M129.12,90.53c1.85-1.13,5.78-1.91,10.06-2.16,2.13-.12,4.37-.11,6.47.06,2.66.22,4.93.69,7.3,1.07,4.77.76,10.42,1.04,15.81.72,2.9-.17,5.61-.54,8.52-.69,2.65-.14,5.58-.08,7.7.44,1.99.48,3.04,1.22,4.06,1.88,1.17.77,2.16,1.57,2.4,2.41.2.72-.17,1.46-1.36,2.11s-3.18,1.11-5.51,1.4-4.89.44-7.41.56c-2.83.13-5.81.23-8.62,0-5.03-.4-7.85-1.77-11.22-2.78-3.56-1.07-7.9-1.95-12.79-2.47-4.88-.52-11.2-.64-14.13-2.04-.6-.28-.95-.6-.96-.93,0-.03-.15-.03-.14,0,.03.68,1.44,1.26,3.25,1.68,2.13.49,4.79.72,7.4.93,1.41.11,2.83.22,4.21.36,1.3.13,2.57.29,3.8.47,2.43.36,4.69.81,6.75,1.33s3.72,1.06,5.43,1.64c1.59.53,3.25,1.07,5.35,1.45,2.34.42,5.04.55,7.79.52,1.47-.02,2.93-.08,4.38-.15,1.26-.06,2.52-.13,3.75-.22,2.4-.18,4.78-.45,6.62-.93s2.99-1.16,3.41-1.86c.46-.77.1-1.55-.67-2.29-.41-.39-.93-.78-1.5-1.16s-1.12-.73-1.8-1.07c-.6-.31-1.31-.6-2.23-.83s-2.08-.4-3.31-.48c-2.75-.18-5.56.03-8.18.27-1.47.13-2.93.28-4.44.38-1.4.09-2.83.15-4.27.16-2.88.03-5.78-.1-8.49-.37s-5.13-.77-7.7-1.16c-2.11-.32-4.36-.52-6.77-.53-4.34,0-8.71.56-11.44,1.51-.65.23-1.2.48-1.64.74-.04.02.09.04.12.02h0Z"/>
        <path class="cls-1" d="M127.82,90.32c1.93-1.21,6.02-2.05,10.48-2.32,2.22-.13,4.55-.12,6.73.07,2.77.24,5.13.74,7.61,1.15,4.97.82,10.85,1.11,16.47.77,3.02-.19,5.84-.58,8.88-.74,2.76-.15,5.81-.09,8.02.47,2.07.52,3.17,1.31,4.23,2.02,1.22.82,2.25,1.69,2.5,2.59.21.77-.18,1.57-1.42,2.26s-3.31,1.19-5.74,1.51c-2.44.32-5.09.47-7.72.6-2.95.14-6.06.24-8.98,0-5.24-.43-8.18-1.9-11.69-2.98-3.71-1.15-8.23-2.09-13.32-2.65-5.09-.56-11.67-.69-14.72-2.19-.62-.31-.98-.65-1-1,0-.03-.15-.03-.15,0,.03.73,1.5,1.36,3.38,1.81,2.22.53,4.99.78,7.71,1,1.47.12,2.94.24,4.38.39,1.36.14,2.68.31,3.96.51,2.53.39,4.89.87,7.03,1.43s3.87,1.14,5.65,1.76c1.66.57,3.39,1.15,5.57,1.56,2.43.46,5.25.6,8.11.55,1.53-.02,3.05-.09,4.57-.16,1.31-.07,2.62-.14,3.91-.24,2.5-.19,4.98-.49,6.9-1s3.11-1.24,3.55-2c.48-.82.11-1.66-.7-2.46-.43-.42-.97-.84-1.56-1.24s-1.17-.78-1.87-1.16c-.62-.33-1.36-.64-2.32-.9s-2.16-.43-3.45-.52c-2.87-.19-5.79.03-8.52.29-1.53.15-3.05.3-4.62.41-1.46.1-2.95.16-4.44.18-3,.03-6.02-.1-8.84-.4s-5.34-.82-8.02-1.24c-2.2-.35-4.54-.56-7.06-.57-4.52,0-9.07.6-11.91,1.63-.68.25-1.25.51-1.71.8-.04.03.09.05.13.02h0Z"/>
        <path class="cls-1" d="M126.47,90.09c2.01-1.3,6.27-2.21,10.92-2.49,2.31-.14,4.74-.13,7.02.07,2.88.25,5.34.8,7.93,1.24,5.18.88,11.3,1.2,17.15.83,3.14-.2,6.08-.62,9.25-.79,2.88-.16,6.06-.09,8.36.5,2.15.56,3.3,1.41,4.4,2.17,1.27.89,2.34,1.82,2.6,2.78.22.83-.19,1.69-1.47,2.44s-3.45,1.28-5.98,1.62-5.31.51-8.04.64c-3.07.15-6.31.26-9.35,0-5.46-.46-8.52-2.04-12.18-3.21-3.86-1.23-8.57-2.25-13.88-2.85-5.3-.6-12.16-.74-15.33-2.35-.65-.33-1.03-.7-1.04-1.08,0-.03-.16-.03-.16,0,.03.78,1.56,1.46,3.52,1.94,2.31.57,5.2.84,8.03,1.08,1.53.13,3.07.25,4.56.42,1.41.15,2.79.34,4.12.55,2.64.42,5.09.94,7.32,1.53s4.03,1.23,5.89,1.89c1.73.62,3.53,1.24,5.8,1.68,2.54.49,5.47.64,8.45.6,1.6-.02,3.18-.09,4.76-.17,1.37-.07,2.73-.15,4.07-.26,2.6-.21,5.18-.52,7.19-1.08s3.24-1.34,3.7-2.15c.5-.89.11-1.79-.73-2.64-.44-.46-1.01-.9-1.63-1.34s-1.21-.84-1.95-1.24c-.65-.35-1.42-.69-2.42-.96s-2.25-.46-3.59-.56c-2.99-.21-6.03.03-8.87.31-1.6.16-3.18.33-4.82.44-1.52.11-3.07.17-4.63.19-3.13.04-6.27-.11-9.21-.43s-5.56-.89-8.36-1.34c-2.29-.37-4.73-.61-7.35-.61-4.71,0-9.45.65-12.41,1.75-.71.26-1.31.55-1.78.86-.04.03.09.05.14.02h0Z"/>
        <path class="cls-1" d="M125.06,89.84c2.09-1.4,6.53-2.38,11.37-2.68,2.41-.15,4.94-.14,7.31.08,3,.27,5.57.86,8.26,1.33,5.39.95,11.77,1.29,17.87.89,3.28-.21,6.34-.67,9.63-.85,3-.17,6.31-.1,8.7.54,2.24.6,3.44,1.51,4.59,2.33,1.32.95,2.44,1.95,2.71,2.99.23.89-.2,1.82-1.54,2.62s-3.59,1.38-6.23,1.75c-2.64.37-5.53.55-8.37.69-3.2.16-6.57.28-9.74,0-5.69-.5-8.88-2.2-12.68-3.45-4.02-1.33-8.93-2.42-14.45-3.07-5.52-.64-12.66-.8-15.97-2.53-.67-.35-1.07-.75-1.08-1.16,0-.03-.16-.03-.16,0,.03.84,1.62,1.57,3.67,2.09,2.41.61,5.42.9,8.36,1.16,1.59.14,3.2.27,4.75.45,1.47.17,2.91.36,4.29.59,2.75.45,5.3,1.01,7.62,1.65s4.2,1.32,6.13,2.03c1.8.66,3.67,1.33,6.05,1.8,2.64.53,5.7.69,8.8.64,1.66-.03,3.31-.1,4.95-.19,1.43-.08,2.85-.16,4.24-.28,2.71-.22,5.4-.56,7.49-1.16s3.38-1.44,3.85-2.31c.52-.95.11-1.92-.76-2.84-.46-.49-1.05-.97-1.7-1.44s-1.27-.91-2.03-1.34c-.68-.38-1.48-.74-2.52-1.04s-2.35-.5-3.74-.6c-3.11-.22-6.28.03-9.24.33-1.66.17-3.31.35-5.02.48-1.58.12-3.2.19-4.82.2-3.26.04-6.53-.12-9.59-.47s-5.8-.95-8.7-1.44c-2.39-.4-4.92-.65-7.66-.66-4.91,0-9.84.7-12.93,1.88-.74.28-1.36.59-1.86.92-.04.03.1.05.14.03h0Z"/>
        <path class="cls-1" d="M123.59,89.57c2.18-1.51,6.8-2.55,11.84-2.88,2.51-.16,5.15-.15,7.61.09,3.13.29,5.8.92,8.6,1.43,5.62,1.02,12.26,1.39,18.61.96,3.41-.23,6.6-.72,10.03-.92,3.12-.18,6.57-.11,9.07.58,2.34.65,3.58,1.63,4.78,2.51,1.38,1.02,2.54,2.1,2.82,3.22.24.96-.2,1.96-1.6,2.82s-3.74,1.48-6.49,1.88c-2.75.4-5.76.59-8.72.74-3.33.18-6.85.3-10.15,0-5.93-.53-9.25-2.36-13.21-3.71-4.19-1.43-9.3-2.6-15.06-3.3-5.75-.69-13.19-.86-16.63-2.72-.7-.38-1.11-.81-1.13-1.25,0-.03-.17-.03-.17,0,.04.9,1.69,1.69,3.82,2.25,2.51.65,5.64.97,8.71,1.24,1.66.15,3.33.29,4.95.48,1.53.18,3.03.39,4.47.63,2.86.48,5.52,1.09,7.94,1.77s4.38,1.42,6.39,2.19c1.87.71,3.83,1.43,6.3,1.94,2.75.57,5.93.74,9.17.69,1.73-.03,3.45-.11,5.16-.2,1.48-.08,2.96-.17,4.42-.3,2.82-.24,5.62-.61,7.8-1.24s3.52-1.55,4.01-2.48c.54-1.02.12-2.07-.79-3.06-.48-.53-1.1-1.04-1.77-1.55s-1.32-.97-2.12-1.44c-.7-.41-1.54-.8-2.62-1.12s-2.45-.54-3.9-.64c-3.24-.24-6.54.03-9.63.36-1.73.18-3.45.38-5.23.51-1.65.13-3.33.2-5.02.22-3.39.04-6.8-.13-9.99-.5s-6.04-1.02-9.07-1.55c-2.49-.43-5.13-.7-7.98-.71-5.11,0-10.25.75-13.47,2.02-.77.3-1.42.64-1.93.99-.05.03.1.06.15.03h0Z"/>
        <path class="cls-1" d="M122.06,89.29c2.27-1.62,7.08-2.75,12.34-3.1,2.62-.18,5.36-.16,7.93.09,3.26.32,6.04.99,8.96,1.54,5.85,1.1,12.78,1.49,19.39,1.03,3.55-.25,6.88-.77,10.45-.99,3.25-.2,6.85-.11,9.44.63,2.43.69,3.73,1.75,4.98,2.7,1.44,1.1,2.65,2.26,2.94,3.46.25,1.03-.21,2.1-1.67,3.03s-3.9,1.59-6.76,2.02c-2.87.43-6,.63-9.09.8-3.47.19-7.13.32-10.57,0-6.17-.57-9.63-2.54-13.76-3.99-4.37-1.53-9.69-2.8-15.68-3.54-5.99-.74-13.74-.92-17.33-2.93-.73-.41-1.16-.87-1.18-1.34,0-.04-.18-.04-.18,0,.04.97,1.76,1.82,3.98,2.42,2.61.7,5.88,1.04,9.08,1.34,1.73.16,3.47.32,5.16.52,1.6.19,3.15.42,4.66.68,2.98.52,5.75,1.17,8.27,1.91,2.45.72,4.56,1.53,6.66,2.35,1.95.77,3.99,1.54,6.56,2.09,2.87.61,6.18.8,9.55.74,1.8-.03,3.6-.12,5.38-.22,1.55-.09,3.09-.19,4.6-.32,2.94-.26,5.86-.65,8.13-1.34s3.67-1.66,4.18-2.67c.56-1.1.12-2.22-.82-3.29-.5-.57-1.14-1.12-1.84-1.66s-1.37-1.05-2.21-1.54c-.73-.44-1.6-.86-2.73-1.2s-2.55-.58-4.06-.69c-3.38-.26-6.82.04-10.03.38-1.8.19-3.6.41-5.44.55-1.71.14-3.47.21-5.23.24-3.53.04-7.09-.14-10.41-.54s-6.29-1.1-9.44-1.66c-2.59-.46-5.34-.75-8.31-.76-5.33,0-10.68.81-14.03,2.18-.8.33-1.48.69-2.01,1.07-.05.03.1.06.15.03h0Z"/>
        <path class="cls-1" d="M120.47,88.98c2.37-1.74,7.38-2.95,12.85-3.33,2.73-.19,5.59-.17,8.26.1,3.4.34,6.29,1.06,9.33,1.65,6.1,1.18,13.31,1.6,20.2,1.11,3.7-.27,7.16-.83,10.89-1.06,3.39-.21,7.13-.12,9.84.67,2.54.75,3.89,1.88,5.18,2.9,1.5,1.18,2.76,2.43,3.06,3.72.26,1.11-.22,2.26-1.74,3.26s-4.06,1.71-7.04,2.17c-2.99.46-6.25.68-9.46.86-3.62.2-7.43.35-11.01,0-6.43-.62-10.03-2.73-14.34-4.29-4.55-1.65-10.09-3.01-16.34-3.81-6.24-.8-14.31-.99-18.05-3.15-.76-.44-1.21-.93-1.23-1.44,0-.04-.19-.04-.18,0,.04,1.04,1.83,1.95,4.15,2.6,2.72.76,6.12,1.12,9.45,1.44,1.8.17,3.61.34,5.37.56,1.67.21,3.29.45,4.85.73,3.11.56,5.99,1.26,8.62,2.05s4.75,1.64,6.93,2.53c2.03.82,4.15,1.66,6.83,2.24,2.99.65,6.44.86,9.95.8,1.88-.03,3.75-.13,5.6-.23,1.61-.09,3.22-.2,4.8-.34,3.06-.28,6.1-.7,8.46-1.44s3.82-1.79,4.35-2.87c.58-1.18.13-2.39-.85-3.53-.52-.61-1.19-1.2-1.92-1.79s-1.43-1.13-2.3-1.66c-.76-.47-1.67-.93-2.85-1.29s-2.65-.62-4.23-.74c-3.52-.27-7.1.04-10.45.41-1.88.21-3.75.44-5.67.59-1.79.15-3.61.23-5.45.25-3.68.05-7.38-.15-10.84-.58s-6.55-1.18-9.84-1.79c-2.7-.5-5.56-.81-8.65-.82-5.55,0-11.13.87-14.61,2.34-.83.35-1.54.74-2.1,1.15-.05.04.11.07.16.03h0Z"/>
        <path class="cls-1" d="M118.81,88.65c2.47-1.87,7.69-3.18,13.39-3.58,2.84-.2,5.82-.18,8.6.11,3.54.37,6.55,1.14,9.72,1.78,6.35,1.27,13.86,1.72,21.04,1.19,3.86-.29,7.46-.89,11.34-1.14,3.53-.23,7.43-.13,10.25.72,2.64.8,4.05,2.02,5.4,3.12,1.56,1.27,2.87,2.61,3.19,4,.27,1.19-.23,2.43-1.81,3.5s-4.23,1.84-7.34,2.33c-3.11.49-6.51.73-9.86.93-3.77.22-7.74.37-11.47,0-6.7-.66-10.45-2.93-14.93-4.61-4.74-1.77-10.51-3.24-17.02-4.1-6.5-.86-14.91-1.06-18.8-3.38-.79-.47-1.26-1-1.28-1.55,0-.04-.19-.04-.19,0,.04,1.12,1.91,2.1,4.32,2.79,2.83.81,6.38,1.2,9.85,1.55,1.88.19,3.76.37,5.6.6,1.73.22,3.42.49,5.05.79,3.24.6,6.24,1.35,8.98,2.2s4.95,1.77,7.22,2.72c2.12.89,4.32,1.78,7.12,2.41,3.11.7,6.71.92,10.36.86,1.96-.03,3.9-.13,5.83-.25,1.68-.1,3.35-.22,5-.37,3.19-.3,6.36-.75,8.82-1.55s3.98-1.92,4.53-3.09c.61-1.27.13-2.57-.89-3.8-.55-.66-1.24-1.29-2-1.92s-1.49-1.21-2.39-1.79c-.8-.51-1.74-.99-2.96-1.39s-2.76-.67-4.41-.8c-3.67-.29-7.4.04-10.88.44-1.96.22-3.9.47-5.91.64-1.86.16-3.76.25-5.68.27-3.83.05-7.69-.16-11.29-.62s-6.83-1.27-10.25-1.92c-2.81-.53-5.8-.87-9.02-.88-5.78,0-11.59.93-15.22,2.52-.87.38-1.6.79-2.18,1.23-.05.04.11.07.17.03h0Z"/>
        <path class="cls-1" d="M117.08,88.29c2.57-2.01,8.01-3.41,13.94-3.85,2.96-.22,6.06-.2,8.96.11,3.68.39,6.83,1.23,10.13,1.91,6.61,1.37,14.44,1.85,21.91,1.28,4.02-.31,7.77-.96,11.81-1.23,3.67-.24,7.74-.14,10.67.78,2.75.86,4.22,2.17,5.62,3.36,1.62,1.37,2.99,2.81,3.32,4.3.28,1.28-.24,2.62-1.88,3.76s-4.41,1.98-7.64,2.51c-3.24.53-6.78.79-10.27,1-3.93.24-8.06.4-11.95,0-6.98-.71-10.89-3.16-15.56-4.96-4.94-1.91-10.95-3.48-17.73-4.41-6.77-.92-15.53-1.14-19.58-3.64-.83-.51-1.31-1.08-1.33-1.67,0-.05-.2-.05-.2,0,.04,1.21,1.99,2.26,4.5,3,2.95.88,6.65,1.29,10.26,1.66,1.95.2,3.92.39,5.83.64,1.81.24,3.57.52,5.26.85,3.37.65,6.5,1.45,9.35,2.37s5.15,1.9,7.52,2.92c2.21.95,4.5,1.91,7.42,2.59,3.24.76,6.99.99,10.79.92,2.04-.04,4.06-.14,6.08-.27,1.75-.11,3.49-.23,5.2-.4,3.32-.32,6.62-.81,9.18-1.66s4.14-2.07,4.72-3.32c.63-1.37.14-2.76-.93-4.09-.57-.7-1.29-1.39-2.08-2.07s-1.55-1.3-2.49-1.92c-.83-.55-1.81-1.07-3.09-1.49s-2.88-.72-4.59-.86c-3.82-.32-7.7.05-11.34.48-2.04.24-4.06.5-6.15.69-1.94.17-3.92.27-5.91.29-3.99.05-8.01-.17-11.77-.67s-7.11-1.37-10.67-2.07c-2.93-.57-6.04-.94-9.39-.94-6.02-.01-12.07,1-15.85,2.71-.9.41-1.67.85-2.28,1.33-.05.04.12.08.17.04h0Z"/>
        <path class="cls-1" d="M115.28,87.91c2.68-2.16,8.34-3.67,14.53-4.14,3.08-.23,6.31-.21,9.34.12,3.84.42,7.11,1.32,10.55,2.06,6.89,1.47,15.04,1.99,22.83,1.38,4.18-.33,8.1-1.03,12.31-1.32,3.83-.26,8.06-.15,11.12.84,2.87.93,4.4,2.34,5.86,3.61,1.69,1.47,3.12,3.02,3.46,4.63.29,1.38-.25,2.81-1.96,4.05s-4.59,2.13-7.96,2.7c-3.38.57-7.06.84-10.7,1.07-4.09.25-8.4.43-12.45,0-7.27-.77-11.34-3.39-16.2-5.33-5.14-2.05-11.41-3.74-18.47-4.74-7.05-.99-16.18-1.23-20.4-3.91-.86-.55-1.36-1.16-1.39-1.79,0-.05-.21-.05-.21,0,.04,1.3,2.07,2.43,4.69,3.23,3.07.94,6.92,1.39,10.69,1.79,2.04.22,4.08.42,6.07.69,1.88.26,3.71.56,5.48.91,3.51.7,6.77,1.56,9.74,2.55s5.37,2.04,7.84,3.14c2.3,1.02,4.69,2.06,7.72,2.79,3.38.81,7.28,1.06,11.24.99,2.12-.04,4.23-.16,6.33-.29,1.82-.12,3.64-.25,5.42-.43,3.46-.34,6.9-.87,9.57-1.79s4.32-2.22,4.92-3.57c.66-1.47.15-2.97-.97-4.39-.59-.76-1.34-1.5-2.17-2.22s-1.62-1.4-2.6-2.07c-.86-.59-1.89-1.15-3.22-1.6s-3-.77-4.78-.92c-3.98-.34-8.03.05-11.81.51-2.12.26-4.23.54-6.41.74-2.02.18-4.08.29-6.16.32-4.16.06-8.34-.19-12.26-.72s-7.41-1.47-11.12-2.22c-3.05-.62-6.29-1.01-9.78-1.01-6.27-.01-12.58,1.08-16.51,2.91-.94.44-1.74.92-2.37,1.43-.06.05.12.08.18.04h0Z"/>
        <path class="cls-1" d="M113.4,87.5c2.79-2.33,8.69-3.95,15.13-4.45,3.21-.25,6.58-.23,9.72.13,4,.45,7.41,1.42,10.99,2.21,7.18,1.58,15.67,2.14,23.78,1.48,4.36-.36,8.43-1.11,12.82-1.42,3.99-.28,8.4-.16,11.58.9,2.99,1,4.58,2.51,6.1,3.88,1.76,1.58,3.25,3.25,3.61,4.97.31,1.48-.26,3.02-2.04,4.35s-4.78,2.29-8.29,2.9c-3.52.61-7.35.91-11.14,1.15-4.26.27-8.75.47-12.97,0-7.57-.83-11.81-3.65-16.88-5.73-5.36-2.2-11.88-4.02-19.23-5.09-7.34-1.07-16.85-1.32-21.25-4.21-.9-.59-1.42-1.24-1.44-1.93,0-.05-.22-.05-.22,0,.05,1.4,2.16,2.61,4.88,3.47,3.2,1.01,7.21,1.49,11.13,1.92,2.12.23,4.25.45,6.33.75,1.96.27,3.87.6,5.71.98,3.66.75,7.05,1.68,10.15,2.74s5.59,2.19,8.16,3.38c2.39,1.1,4.89,2.21,8.05,3,3.52.88,7.58,1.14,11.71,1.07,2.21-.04,4.41-.17,6.59-.31,1.9-.13,3.79-.27,5.65-.46,3.61-.37,7.18-.94,9.96-1.92s4.5-2.39,5.12-3.84c.69-1.58.15-3.19-1.01-4.73-.62-.81-1.4-1.61-2.26-2.39s-1.68-1.5-2.7-2.22c-.9-.63-1.96-1.24-3.35-1.72s-3.12-.83-4.98-.99c-4.14-.37-8.36.05-12.3.55-2.21.28-4.41.58-6.68.79-2.1.2-4.25.31-6.42.34-4.33.06-8.69-.2-12.77-.77s-7.71-1.58-11.58-2.39c-3.18-.66-6.55-1.08-10.19-1.09-6.53-.01-13.1,1.16-17.2,3.13-.98.47-1.81.99-2.47,1.53-.06.05.13.09.19.04h0Z"/>
        <path class="cls-1" d="M111.45,87.05c2.9-2.5,9.05-4.24,15.76-4.79,3.34-.27,6.85-.24,10.13.14,4.16.49,7.72,1.53,11.44,2.38,7.48,1.7,16.32,2.3,24.77,1.59,4.54-.38,8.78-1.19,13.35-1.53,4.15-.3,8.75-.18,12.07.97,3.11,1.07,4.77,2.7,6.36,4.17,1.84,1.7,3.38,3.49,3.76,5.35.32,1.59-.27,3.25-2.13,4.68s-4.98,2.46-8.64,3.12c-3.66.66-7.66.98-11.61,1.24-4.44.29-9.11.5-13.51,0-7.89-.89-12.3-3.92-17.58-6.17-5.58-2.37-12.38-4.33-20.04-5.48-7.65-1.15-17.55-1.42-22.13-4.52-.93-.63-1.48-1.34-1.5-2.07,0-.06-.23-.06-.23,0,.05,1.5,2.25,2.81,5.09,3.74,3.34,1.09,7.51,1.61,11.59,2.07,2.21.25,4.43.49,6.59.8,2.04.3,4.03.65,5.95,1.05,3.81.8,7.35,1.8,10.57,2.94s5.82,2.36,8.5,3.63c2.49,1.18,5.09,2.38,8.38,3.23,3.66.94,7.9,1.23,12.2,1.15,2.31-.04,4.59-.18,6.87-.34,1.98-.14,3.95-.29,5.88-.49,3.76-.4,7.48-1.01,10.38-2.07s4.68-2.57,5.34-4.13c.72-1.7.16-3.43-1.05-5.08-.64-.88-1.46-1.73-2.35-2.57s-1.75-1.62-2.82-2.39c-.94-.68-2.05-1.33-3.49-1.85s-3.25-.89-5.19-1.07c-4.32-.39-8.71.06-12.81.59-2.31.3-4.59.63-6.95.85-2.19.21-4.43.33-6.68.36-4.51.07-9.05-.21-13.3-.83s-8.04-1.7-12.06-2.57c-3.31-.71-6.82-1.17-10.61-1.17-6.81-.01-13.65,1.25-17.92,3.36-1.02.51-1.89,1.06-2.57,1.65-.06.05.13.1.2.05h0Z"/>
        <path class="cls-1" d="M109.41,86.58c3.02-2.69,9.43-4.56,16.42-5.15,3.48-.29,7.14-.26,10.55.15,4.34.53,8.04,1.64,11.92,2.56,7.79,1.83,17,2.48,25.8,1.71,4.73-.41,9.15-1.28,13.91-1.64,4.33-.33,9.11-.19,12.57,1.04,3.24,1.15,4.97,2.9,6.62,4.49,1.91,1.83,3.52,3.75,3.91,5.75.33,1.71-.28,3.5-2.22,5.03s-5.19,2.65-9,3.36c-3.82.71-7.98,1.05-12.09,1.33-4.62.32-9.49.54-14.07,0-8.22-.96-12.82-4.22-18.32-6.63-5.81-2.55-12.89-4.65-20.87-5.89-7.97-1.24-18.28-1.53-23.06-4.86-.97-.68-1.54-1.44-1.57-2.23,0-.06-.24-.06-.24,0,.05,1.61,2.34,3.02,5.3,4.02,3.48,1.17,7.82,1.73,12.08,2.22,2.3.27,4.61.53,6.86.86,2.13.32,4.2.7,6.2,1.13,3.97.86,7.65,1.94,11.01,3.17s6.06,2.54,8.86,3.91c2.6,1.27,5.3,2.56,8.73,3.47,3.82,1.01,8.23,1.32,12.71,1.23,2.4-.05,4.79-.19,7.15-.36,2.06-.15,4.11-.31,6.13-.53,3.91-.43,7.79-1.08,10.81-2.22s4.88-2.76,5.56-4.44c.75-1.83.17-3.69-1.09-5.46-.67-.94-1.52-1.86-2.45-2.76s-1.83-1.74-2.93-2.57c-.98-.73-2.13-1.43-3.64-1.99s-3.39-.96-5.4-1.15c-4.5-.42-9.07.06-13.35.64-2.4.32-4.78.67-7.24.92-2.28.23-4.62.36-6.96.39-4.7.07-9.43-.23-13.85-.89s-8.37-1.83-12.57-2.76c-3.45-.77-7.11-1.25-11.06-1.26-7.09-.01-14.22,1.34-18.67,3.62-1.06.54-1.97,1.14-2.68,1.77-.06.06.14.11.2.05h0Z"/>
        <path class="cls-1" d="M107.29,86.07c3.15-2.89,9.82-4.91,17.1-5.54,3.63-.31,7.43-.28,10.99.16,4.52.56,8.37,1.77,12.42,2.75,8.11,1.96,17.71,2.66,26.88,1.84,4.93-.44,9.53-1.38,14.49-1.77,4.51-.35,9.49-.2,13.09,1.12,3.37,1.24,5.18,3.12,6.9,4.82,1.99,1.97,3.67,4.03,4.08,6.18.35,1.84-.3,3.76-2.31,5.41s-5.4,2.85-9.37,3.61c-3.98.76-8.31,1.13-12.59,1.43-4.81.34-9.88.58-14.66,0-8.56-1.03-13.35-4.54-19.08-7.13-6.05-2.74-13.43-5-21.74-6.33-8.3-1.33-19.05-1.64-24.02-5.23-1.01-.73-1.61-1.55-1.63-2.4,0-.07-.25-.07-.25,0,.05,1.73,2.44,3.25,5.52,4.32,3.62,1.26,8.15,1.86,12.58,2.39,2.4.29,4.81.57,7.15.93,2.22.34,4.37.75,6.46,1.22,4.13.93,7.97,2.09,11.47,3.4s6.32,2.73,9.23,4.2c2.7,1.37,5.52,2.75,9.09,3.73,3.97,1.09,8.57,1.42,13.24,1.33,2.5-.05,4.99-.21,7.45-.39,2.14-.16,4.28-.33,6.38-.57,4.08-.46,8.12-1.16,11.26-2.39s5.08-2.97,5.79-4.77c.78-1.97.17-3.97-1.14-5.87-.7-1.01-1.58-2-2.55-2.97s-1.9-1.87-3.06-2.76c-1.02-.78-2.22-1.54-3.79-2.14s-3.53-1.03-5.63-1.24c-4.68-.46-9.45.07-13.9.68-2.5.35-4.98.73-7.55.99-2.38.24-4.81.38-7.25.42-4.9.08-9.82-.25-14.43-.96-4.71-.73-8.72-1.97-13.09-2.97-3.59-.83-7.41-1.35-11.52-1.36-7.38-.01-14.81,1.44-19.44,3.89-1.11.59-2.05,1.23-2.79,1.91-.07.06.15.11.21.05h0Z"/>
        <path class="cls-1" d="M105.08,85.52c3.28-3.11,10.23-5.28,17.81-5.96,3.78-.34,7.74-.3,11.45.18,4.71.61,8.72,1.9,12.94,2.95,8.45,2.11,18.45,2.86,28,1.98,5.13-.48,9.93-1.48,15.09-1.9,4.69-.38,9.89-.22,13.64,1.2,3.52,1.33,5.39,3.36,7.18,5.19,2.08,2.12,3.82,4.34,4.25,6.65.36,1.98-.31,4.04-2.41,5.82s-5.63,3.06-9.76,3.88c-4.14.82-8.66,1.21-13.12,1.54-5.02.36-10.3.62-15.27,0-8.92-1.1-13.91-4.88-19.87-7.67-6.31-2.95-13.99-5.38-22.65-6.81-8.65-1.43-19.84-1.77-25.02-5.62-1.05-.79-1.67-1.66-1.7-2.58,0-.07-.26-.07-.26,0,.05,1.87,2.54,3.49,5.75,4.64,3.77,1.35,8.49,2,13.11,2.57,2.5.31,5.01.61,7.45,1,2.31.37,4.56.81,6.73,1.31,4.31,1,8.31,2.24,11.95,3.66s6.58,2.93,9.61,4.52c2.82,1.47,5.76,2.96,9.47,4.01,4.14,1.17,8.93,1.53,13.79,1.43,2.61-.06,5.19-.22,7.76-.42,2.23-.17,4.46-.36,6.65-.61,4.25-.5,8.46-1.25,11.73-2.57s5.29-3.19,6.03-5.13c.81-2.12.18-4.27-1.18-6.32-.73-1.09-1.65-2.15-2.66-3.2s-1.98-2.01-3.18-2.97c-1.06-.84-2.31-1.65-3.94-2.3s-3.68-1.11-5.86-1.33c-4.88-.49-9.84.07-14.48.73-2.61.37-5.19.78-7.86,1.06-2.48.26-5.01.41-7.55.45-5.1.08-10.23-.27-15.03-1.03-4.9-.78-9.08-2.12-13.64-3.2-3.74-.89-7.71-1.45-12-1.46-7.69-.02-15.42,1.55-20.25,4.18-1.16.63-2.13,1.32-2.91,2.05-.07.06.15.12.22.06h0Z"/>
        <path class="cls-1" d="M102.78,84.92c3.42-3.34,10.66-5.67,18.56-6.4,3.94-.36,8.06-.33,11.93.19,4.9.65,9.09,2.04,13.47,3.18,8.8,2.27,19.22,3.08,29.16,2.13,5.35-.51,10.34-1.59,15.72-2.04,4.89-.41,10.3-.24,14.21,1.29,3.66,1.43,5.62,3.61,7.48,5.58,2.16,2.28,3.98,4.66,4.42,7.15.38,2.13-.32,4.35-2.51,6.26s-5.86,3.29-10.17,4.17c-4.31.88-9.02,1.31-13.67,1.65-5.22.39-10.73.67-15.9,0-9.29-1.19-14.49-5.24-20.7-8.24-6.57-3.17-14.57-5.78-23.59-7.32-9.01-1.54-20.67-1.9-26.06-6.05-1.1-.84-1.74-1.79-1.77-2.77,0-.08-.27-.08-.27,0,.06,2.01,2.65,3.76,5.99,4.99,3.93,1.45,8.84,2.15,13.65,2.77,2.6.33,5.22.65,7.76,1.07,2.4.39,4.74.87,7.01,1.41,4.49,1.07,8.65,2.41,12.44,3.94,3.68,1.48,6.85,3.15,10.01,4.86,2.93,1.58,5.99,3.18,9.87,4.31,4.31,1.26,9.3,1.65,14.37,1.53,2.71-.06,5.41-.24,8.09-.45,2.33-.18,4.64-.39,6.93-.66,4.42-.53,8.81-1.35,12.22-2.76s5.51-3.43,6.28-5.52c.84-2.28.19-4.59-1.23-6.79-.76-1.17-1.72-2.31-2.77-3.44s-2.07-2.16-3.32-3.19c-1.1-.91-2.41-1.78-4.11-2.48s-3.83-1.19-6.11-1.43c-5.08-.53-10.25.08-15.09.79-2.71.4-5.41.84-8.19,1.14-2.58.28-5.22.44-7.87.49-5.31.09-10.66-.29-15.66-1.11-5.11-.84-9.46-2.28-14.2-3.44-3.9-.96-8.04-1.56-12.5-1.57-8.01-.02-16.07,1.67-21.1,4.5-1.2.68-2.22,1.42-3.03,2.21-.07.07.16.13.23.06h0Z"/>
        <path class="cls-1" d="M100.38,84.29c3.56-3.6,11.1-6.1,19.33-6.89,4.1-.39,8.4-.35,12.42.2,5.11.7,9.46,2.2,14.04,3.42,9.17,2.44,20.02,3.31,30.38,2.29,5.57-.55,10.77-1.71,16.38-2.19,5.09-.44,10.73-.25,14.8,1.39,3.81,1.54,5.85,3.88,7.8,6,2.25,2.45,4.15,5.02,4.61,7.69.39,2.29-.33,4.67-2.61,6.73s-6.11,3.54-10.59,4.49c-4.49.95-9.4,1.4-14.24,1.78-5.44.42-11.17.72-16.57,0-9.67-1.28-15.09-5.64-21.56-8.86-6.84-3.41-15.18-6.22-24.57-7.87-9.38-1.65-21.53-2.04-27.15-6.5-1.14-.91-1.82-1.92-1.84-2.98,0-.08-.28-.08-.28,0,.06,2.16,2.76,4.04,6.24,5.37,4.09,1.56,9.21,2.31,14.22,2.97,2.71.36,5.43.7,8.08,1.15,2.5.42,4.94.93,7.3,1.52,4.67,1.16,9.01,2.59,12.96,4.23,3.84,1.59,7.14,3.39,10.43,5.22,3.06,1.7,6.24,3.42,10.28,4.64,4.49,1.35,9.69,1.77,14.96,1.65,2.83-.06,5.63-.26,8.42-.48,2.42-.19,4.84-.41,7.21-.71,4.61-.57,9.18-1.45,12.73-2.97s5.74-3.69,6.55-5.93c.88-2.45.19-4.94-1.28-7.3-.79-1.26-1.79-2.49-2.89-3.69s-2.15-2.33-3.46-3.43c-1.15-.97-2.51-1.91-4.28-2.66s-3.99-1.28-6.36-1.54c-5.29-.57-10.68.08-15.71.85-2.83.43-5.63.9-8.53,1.23-2.69.3-5.44.48-8.2.52-5.54.1-11.1-.31-16.31-1.19-5.32-.91-9.86-2.45-14.8-3.7-4.06-1.03-8.37-1.67-13.02-1.68-8.35-.02-16.74,1.79-21.98,4.84-1.25.73-2.31,1.52-3.15,2.37-.07.08.16.14.24.07h0Z"/>
        <path class="cls-1" d="M97.88,83.6c3.71-3.87,11.56-6.56,20.14-7.4,4.27-.42,8.75-.38,12.94.22,5.32.75,9.86,2.36,14.62,3.67,9.55,2.63,20.85,3.56,31.64,2.46,5.8-.59,11.22-1.84,17.06-2.36,5.3-.47,11.17-.27,15.41,1.49,3.97,1.66,6.09,4.17,8.12,6.45,2.35,2.63,4.32,5.39,4.8,8.27.41,2.46-.35,5.03-2.72,7.23s-6.36,3.81-11.03,4.82c-4.68,1.02-9.79,1.51-14.83,1.91-5.67.45-11.64.77-17.26,0-10.08-1.37-15.72-6.06-22.46-9.53-7.13-3.66-15.81-6.69-25.6-8.47-9.77-1.78-22.42-2.2-28.28-6.99-1.19-.98-1.89-2.07-1.92-3.2,0-.09-.29-.09-.29,0,.06,2.32,2.88,4.34,6.5,5.77,4.26,1.68,9.6,2.48,14.81,3.2,2.82.39,5.66.76,8.42,1.24,2.61.46,5.15,1,7.6,1.63,4.87,1.24,9.39,2.79,13.5,4.55,3.99,1.71,7.44,3.65,10.86,5.62,3.18,1.83,6.5,3.68,10.71,4.98,4.68,1.45,10.09,1.9,15.59,1.77,2.95-.07,5.87-.28,8.77-.52,2.52-.21,5.04-.45,7.52-.76,4.8-.62,9.56-1.56,13.26-3.19s5.98-3.97,6.82-6.38c.91-2.63.2-5.31-1.34-7.85-.82-1.35-1.86-2.67-3.01-3.97s-2.24-2.5-3.6-3.69c-1.2-1.05-2.61-2.06-4.46-2.87s-4.16-1.38-6.63-1.65c-5.51-.61-11.13.09-16.37.91-2.95.46-5.87.97-8.88,1.32-2.8.32-5.66.51-8.54.56-5.77.1-11.57-.33-16.99-1.28-5.54-.97-10.27-2.63-15.41-3.97-4.23-1.1-8.72-1.8-13.56-1.81-8.69-.02-17.43,1.93-22.89,5.2-1.31.78-2.41,1.64-3.29,2.55-.08.08.17.15.25.07h0Z"/>
        <path class="cls-1" d="M95.28,82.87c3.86-4.16,12.04-7.05,20.97-7.96,4.45-.45,9.12-.4,13.48.23,5.54.81,10.27,2.54,15.23,3.95,9.95,2.82,21.72,3.83,32.96,2.64,6.04-.64,11.69-1.98,17.77-2.54,5.53-.51,11.64-.29,16.06,1.61,4.14,1.78,6.35,4.49,8.46,6.93,2.44,2.83,4.5,5.8,5,8.89.43,2.65-.36,5.4-2.83,7.78s-6.63,4.09-11.49,5.19-10.19,1.62-15.45,2.06c-5.9.49-12.12.83-17.98,0-10.5-1.48-16.37-6.52-23.4-10.25-7.42-3.94-16.47-7.19-26.66-9.1-10.18-1.91-23.36-2.36-29.46-7.52-1.24-1.05-1.97-2.22-2-3.45,0-.1-.3-.1-.3,0,.06,2.49,2.99,4.67,6.77,6.21,4.44,1.81,10,2.67,15.43,3.44,2.94.42,5.89.81,8.77,1.33,2.72.49,5.36,1.08,7.92,1.75,5.07,1.34,9.78,3,14.06,4.89,4.16,1.84,7.75,3.92,11.32,6.04,3.32,1.97,6.78,3.96,11.15,5.36,4.87,1.56,10.51,2.05,16.24,1.91,3.07-.07,6.11-.3,9.14-.56,2.63-.22,5.25-.48,7.83-.82,5-.66,9.96-1.67,13.81-3.43s6.23-4.27,7.1-6.86c.95-2.83.21-5.71-1.39-8.44-.85-1.46-1.94-2.88-3.13-4.27s-2.33-2.69-3.75-3.97c-1.25-1.13-2.72-2.21-4.64-3.08s-4.33-1.48-6.9-1.78c-5.74-.66-11.59.09-17.05.98-3.07.5-6.11,1.04-9.25,1.42-2.91.35-5.9.55-8.89.61-6.01.11-12.05-.36-17.7-1.38-5.77-1.05-10.69-2.83-16.06-4.27-4.41-1.19-9.08-1.94-14.12-1.95-9.06-.02-18.16,2.07-23.85,5.59-1.36.84-2.51,1.76-3.42,2.74-.08.09.18.16.26.08h0Z"/>
        <path class="cls-1" d="M92.57,82.08c4.03-4.47,12.55-7.59,21.85-8.56,4.63-.49,9.5-.43,14.04.25,5.77.87,10.7,2.73,15.86,4.25,10.36,3.04,22.63,4.12,34.34,2.84,6.29-.68,12.18-2.13,18.51-2.73,5.76-.54,12.12-.32,16.73,1.73,4.31,1.92,6.61,4.83,8.81,7.45,2.55,3.04,4.69,6.24,5.21,9.56.44,2.84-.38,5.81-2.95,8.36s-6.9,4.4-11.97,5.58-10.62,1.75-16.09,2.21c-6.15.52-12.63.9-18.72,0-10.94-1.59-17.06-7.01-24.37-11.02-7.73-4.24-17.16-7.73-27.77-9.79-10.6-2.05-24.33-2.54-30.68-8.09-1.29-1.13-2.05-2.39-2.08-3.7,0-.1-.32-.1-.31,0,.07,2.68,3.12,5.02,7.05,6.68,4.63,1.94,10.41,2.87,16.07,3.7,3.06.45,6.14.87,9.14,1.43,2.83.53,5.59,1.16,8.25,1.88,5.28,1.44,10.19,3.22,14.65,5.26,4.33,1.98,8.07,4.22,11.79,6.49,3.46,2.12,7.06,4.25,11.62,5.76,5.08,1.68,10.95,2.2,16.91,2.05,3.2-.08,6.37-.32,9.52-.6,2.74-.24,5.47-.52,8.15-.88,5.21-.71,10.37-1.8,14.39-3.69s6.49-4.59,7.4-7.38c.99-3.04.22-6.14-1.45-9.08-.89-1.57-2.02-3.09-3.26-4.59s-2.43-2.89-3.91-4.27c-1.3-1.21-2.84-2.38-4.84-3.31s-4.51-1.6-7.19-1.91c-5.98-.7-12.07.1-17.76,1.06-3.2.54-6.37,1.12-9.64,1.53-3.04.37-6.14.59-9.26.65-6.26.12-12.55-.38-18.43-1.49-6.01-1.13-11.14-3.04-16.72-4.6-4.59-1.28-9.46-2.08-14.71-2.09-9.43-.02-18.92,2.23-24.84,6.01-1.42.91-2.62,1.89-3.56,2.95-.08.09.19.18.27.08h0Z"/>
        <path class="cls-1" d="M89.75,81.23c4.19-4.81,13.07-8.16,22.76-9.2,4.83-.52,9.89-.47,14.63.27,6.01.94,11.14,2.94,16.53,4.57,10.8,3.26,23.57,4.42,35.77,3.06,6.56-.73,12.68-2.29,19.28-2.93,6-.58,12.63-.34,17.42,1.86,4.49,2.06,6.89,5.19,9.18,8.02,2.65,3.27,4.89,6.71,5.43,10.28.46,3.06-.39,6.25-3.07,8.99s-7.19,4.73-12.47,6-11.06,1.88-16.76,2.38c-6.41.56-13.15.96-19.51.01-11.39-1.71-17.77-7.54-25.39-11.85-8.06-4.56-17.87-8.31-28.93-10.53-11.05-2.21-25.34-2.73-31.96-8.69-1.35-1.21-2.14-2.57-2.17-3.98,0-.11-.33-.11-.33,0,.07,2.88,3.25,5.4,7.35,7.18,4.82,2.09,10.85,3.09,16.74,3.98,3.19.48,6.4.94,9.52,1.54,2.95.57,5.82,1.25,8.59,2.03,5.5,1.54,10.61,3.47,15.26,5.66,4.52,2.13,8.41,4.53,12.28,6.98,3.6,2.28,7.35,4.57,12.1,6.2,5.29,1.81,11.4,2.36,17.62,2.2,3.33-.09,6.63-.35,9.92-.64,2.85-.26,5.7-.55,8.49-.95,5.42-.77,10.81-1.93,14.99-3.97s6.76-4.94,7.71-7.93c1.03-3.27.23-6.6-1.51-9.76-.93-1.68-2.11-3.33-3.4-4.94s-2.53-3.11-4.07-4.59c-1.35-1.3-2.96-2.56-5.04-3.56s-4.7-1.72-7.49-2.05c-6.23-.76-12.58.11-18.5,1.13-3.33.58-6.63,1.21-10.04,1.64-3.16.4-6.4.64-9.65.7-6.52.13-13.07-.41-19.2-1.6-6.26-1.21-11.6-3.27-17.42-4.94-4.78-1.37-9.85-2.24-15.33-2.25-9.83-.02-19.71,2.39-25.88,6.46-1.48.97-2.72,2.04-3.71,3.17-.09.1.19.19.28.09h0Z"/>
        <path class="cls-1" d="M86.81,80.31c4.37-5.17,13.61-8.77,23.71-9.9,5.03-.56,10.3-.5,15.24.29,6.26,1.01,11.61,3.16,17.21,4.91,11.24,3.51,24.55,4.76,37.26,3.29,6.83-.79,13.21-2.46,20.09-3.15,6.25-.63,13.16-.37,18.15,2,4.68,2.22,7.18,5.58,9.56,8.62,2.76,3.52,5.09,7.21,5.65,11.05.48,3.29-.41,6.72-3.2,9.67s-7.49,5.09-12.99,6.45-11.52,2.02-17.46,2.56c-6.67.61-13.7,1.04-20.32.01-11.87-1.84-18.51-8.11-26.45-12.74-8.39-4.9-18.61-8.94-30.14-11.32-11.51-2.37-26.4-2.94-33.29-9.35-1.4-1.31-2.23-2.76-2.26-4.28,0-.12-.34-.12-.34,0,.07,3.1,3.39,5.81,7.65,7.72,5.02,2.25,11.3,3.32,17.44,4.27,3.32.52,6.66,1.01,9.91,1.66,3.07.61,6.06,1.34,8.95,2.18,5.73,1.66,11.05,3.73,15.9,6.08,4.7,2.29,8.76,4.88,12.79,7.51,3.75,2.45,7.66,4.92,12.61,6.66,5.51,1.94,11.88,2.54,18.35,2.37,3.47-.09,6.91-.37,10.33-.69,2.97-.28,5.93-.6,8.85-1.02,5.65-.82,11.26-2.08,15.61-4.27,4.43-2.23,7.04-5.31,8.03-8.53,1.08-3.52.24-7.1-1.58-10.5-.97-1.81-2.19-3.58-3.54-5.31s-2.64-3.34-4.24-4.93c-1.41-1.4-3.08-2.75-5.25-3.83s-4.89-1.84-7.8-2.21c-6.49-.81-13.1.12-19.27,1.22-3.47.62-6.91,1.3-10.46,1.76-3.29.43-6.67.68-10.05.75-6.79.14-13.62-.44-20-1.72-6.52-1.3-12.09-3.52-18.15-5.31-4.98-1.48-10.27-2.41-15.97-2.42-10.24-.03-20.53,2.58-26.95,6.95-1.54,1.05-2.84,2.19-3.87,3.41-.09.11.2.2.29.09h0Z"/>
        <path class="cls-1" d="M83.75,79.33c4.55-5.56,14.18-9.43,24.69-10.64,5.24-.6,10.73-.54,15.87.31,6.52,1.08,12.09,3.4,17.93,5.28,11.71,3.77,25.57,5.12,38.81,3.54,7.11-.85,13.76-2.65,20.92-3.39,6.51-.68,13.7-.39,18.9,2.15,4.87,2.38,7.47,6,9.96,9.27,2.88,3.78,5.3,7.75,5.89,11.88.5,3.54-.43,7.22-3.34,10.4s-7.8,5.47-13.53,6.93c-5.74,1.46-12,2.17-18.19,2.75-6.95.65-14.27,1.11-21.16.01-12.36-1.97-19.28-8.72-27.55-13.7-8.74-5.27-19.39-9.61-31.39-12.17-11.99-2.55-27.5-3.16-34.68-10.05-1.46-1.4-2.32-2.97-2.36-4.61,0-.13-.36-.13-.35,0,.07,3.33,3.53,6.24,7.97,8.3,5.23,2.42,11.77,3.57,18.17,4.6,3.46.56,6.94,1.09,10.33,1.78,3.2.66,6.31,1.44,9.32,2.34,5.97,1.79,11.51,4.01,16.56,6.54,4.9,2.46,9.12,5.24,13.32,8.07,3.91,2.63,7.98,5.29,13.13,7.17,5.74,2.09,12.37,2.73,19.12,2.55,3.61-.1,7.2-.4,10.76-.75,3.1-.3,6.18-.64,9.22-1.1,5.89-.89,11.72-2.24,16.26-4.59,4.62-2.4,7.34-5.71,8.36-9.17,1.12-3.78.25-7.63-1.64-11.29-1.01-1.95-2.28-3.84-3.69-5.71s-2.75-3.6-4.41-5.31c-1.47-1.51-3.21-2.96-5.47-4.12s-5.1-1.98-8.13-2.38c-6.76-.88-13.65.13-20.08,1.31-3.61.67-7.2,1.39-10.89,1.9-3.43.47-6.94.74-10.47.81-7.07.15-14.19-.48-20.84-1.85-6.8-1.4-12.59-3.78-18.9-5.71-5.19-1.59-10.69-2.59-16.63-2.6-10.66-.03-21.38,2.77-28.08,7.47-1.6,1.13-2.96,2.35-4.03,3.67-.09.12.21.22.31.1h0Z"/>
        <path class="cls-1" d="M80.56,78.27c4.74-5.98,14.77-10.14,25.72-11.44,5.46-.65,11.18-.58,16.53.34,6.8,1.17,12.59,3.65,18.68,5.68,12.2,4.06,26.64,5.5,40.43,3.8,7.41-.91,14.34-2.85,21.79-3.65,6.78-.73,14.27-.42,19.69,2.31,5.08,2.56,7.79,6.45,10.37,9.97,3,4.07,5.52,8.34,6.13,12.78.52,3.8-.44,7.77-3.48,11.18s-8.13,5.88-14.1,7.45c-5.98,1.58-12.5,2.33-18.94,2.96-7.24.7-14.87,1.2-22.05.01-12.88-2.12-20.08-9.37-28.7-14.73-9.11-5.66-20.2-10.34-32.7-13.09-12.48-2.75-28.65-3.4-36.13-10.81-1.52-1.51-2.42-3.2-2.45-4.95,0-.14-.37-.14-.37,0,.08,3.58,3.67,6.71,8.3,8.92,5.45,2.6,12.26,3.84,18.92,4.94,3.61.6,7.23,1.17,10.76,1.91,3.33.71,6.58,1.55,9.71,2.52,6.22,1.92,11.99,4.31,17.25,7.03s9.5,5.64,13.88,8.68c4.07,2.83,8.31,5.69,13.68,7.7,5.98,2.25,12.89,2.94,19.91,2.74,3.76-.11,7.5-.43,11.21-.8,3.22-.32,6.44-.69,9.6-1.18,6.13-.95,12.21-2.4,16.94-4.94,4.81-2.58,7.64-6.14,8.71-9.86,1.17-4.07.26-8.2-1.71-12.14-1.05-2.09-2.38-4.13-3.84-6.14s-2.86-3.87-4.6-5.7c-1.53-1.62-3.34-3.18-5.7-4.43s-5.31-2.13-8.47-2.55c-7.04-.94-14.21.14-20.91,1.41-3.76.72-7.5,1.5-11.35,2.04-3.57.5-7.23.79-10.91.87-7.37.16-14.78-.51-21.7-1.99-7.08-1.5-13.11-4.07-19.69-6.14-5.41-1.71-11.14-2.78-17.32-2.8-11.11-.03-22.27,2.98-29.25,8.04-1.67,1.21-3.08,2.53-4.2,3.94-.1.12.22.23.32.11h0Z"/>
        <path class="cls-1" d="M77.24,77.14c4.94-6.43,15.39-10.9,26.8-12.3,5.68-.7,11.65-.62,17.22.36,7.08,1.25,13.12,3.93,19.46,6.1,12.71,4.36,27.75,5.92,42.11,4.09,7.72-.98,14.93-3.06,22.7-3.92,7.06-.78,14.87-.46,20.51,2.48,5.29,2.75,8.11,6.94,10.81,10.72,3.12,4.37,5.75,8.96,6.39,13.74.54,4.09-.46,8.35-3.62,12.02-3.17,3.68-8.47,6.33-14.68,8.02s-13.02,2.51-19.73,3.18c-7.54.75-15.49,1.29-22.96.01-13.41-2.28-20.92-10.08-29.89-15.84-9.49-6.09-21.04-11.11-34.06-14.07-13.01-2.95-29.84-3.65-37.63-11.62-1.59-1.62-2.52-3.44-2.56-5.32,0-.15-.39-.15-.38,0,.08,3.85,3.83,7.22,8.65,9.6,5.67,2.79,12.77,4.13,19.71,5.31,3.76.64,7.53,1.26,11.2,2.06,3.47.76,6.85,1.67,10.12,2.71,6.48,2.07,12.49,4.63,17.97,7.56s9.9,6.06,14.46,9.34c4.24,3.04,8.66,6.11,14.25,8.28,6.23,2.42,13.43,3.16,20.74,2.95,3.92-.12,7.81-.46,11.68-.86,3.36-.35,6.71-.74,10-1.27,6.39-1.02,12.72-2.58,17.65-5.31,5.01-2.77,7.96-6.6,9.08-10.6,1.22-4.37.27-8.82-1.78-13.05-1.09-2.25-2.48-4.44-4-6.6s-2.98-4.16-4.79-6.13c-1.59-1.74-3.48-3.42-5.93-4.76s-5.53-2.29-8.82-2.75c-7.34-1.01-14.81.15-21.78,1.52-3.92.77-7.81,1.61-11.82,2.19-3.72.54-7.53.85-11.36.94-7.67.17-15.39-.55-22.61-2.13-7.37-1.62-13.66-4.37-20.51-6.61-5.63-1.84-11.6-2.99-18.05-3.01-11.57-.03-23.2,3.2-30.46,8.64-1.74,1.3-3.21,2.72-4.37,4.24-.1.13.23.25.33.12h0Z"/>
        <path class="cls-1" d="M73.77,75.91c5.14-6.91,16.03-11.72,27.91-13.23,5.92-.75,12.13-.67,17.94.39,7.37,1.35,13.67,4.22,20.27,6.56,13.24,4.69,28.9,6.36,43.87,4.39,8.04-1.06,15.56-3.29,23.65-4.22,7.35-.84,15.49-.49,21.37,2.67,5.51,2.96,8.45,7.46,11.26,11.52,3.25,4.7,5.99,9.64,6.65,14.77.57,4.4-.48,8.98-3.77,12.93-3.3,3.96-8.82,6.8-15.3,8.62s-13.57,2.7-20.56,3.42c-7.86.81-16.13,1.38-23.92.02-13.97-2.45-21.79-10.84-31.14-17.03-9.88-6.55-21.92-11.95-35.48-15.13-13.55-3.17-31.08-3.93-39.2-12.5-1.65-1.74-2.62-3.7-2.66-5.73,0-.16-.4-.16-.4,0,.08,4.14,3.99,7.76,9.01,10.32,5.91,3.01,13.3,4.44,20.53,5.71,3.91.69,7.84,1.35,11.67,2.21,3.62.82,7.14,1.79,10.54,2.91,6.75,2.22,13.01,4.98,18.72,8.13s10.31,6.52,15.06,10.04c4.41,3.27,9.02,6.57,14.84,8.91,6.49,2.6,13.99,3.4,21.61,3.17,4.08-.12,8.14-.5,12.16-.93,3.5-.37,6.99-.8,10.42-1.37,6.65-1.1,13.25-2.78,18.38-5.71,5.22-2.98,8.29-7.1,9.45-11.4,1.27-4.7.28-9.49-1.85-14.03-1.14-2.42-2.58-4.78-4.17-7.1s-3.11-4.47-4.99-6.6c-1.66-1.87-3.62-3.67-6.18-5.12s-5.76-2.47-9.19-2.95c-7.64-1.09-15.42.16-22.69,1.63-4.08.83-8.13,1.73-12.31,2.36-3.88.58-7.85.91-11.83,1.01-7.99.19-16.03-.59-23.55-2.3-7.68-1.74-14.23-4.7-21.37-7.1-5.87-1.97-12.09-3.22-18.8-3.24-12.05-.03-24.17,3.44-31.73,9.29-1.81,1.4-3.34,2.93-4.55,4.56-.11.14.24.27.35.13h0Z"/>
        <path class="cls-1" d="M70.17,74.6c5.36-7.43,16.69-12.61,29.07-14.23,6.17-.81,12.64-.72,18.69.42,7.68,1.45,14.24,4.54,21.11,7.06,13.79,5.05,30.11,6.84,45.69,4.73,8.38-1.14,16.2-3.54,24.63-4.53,7.66-.9,16.13-.53,22.26,2.87,5.74,3.18,8.8,8.02,11.73,12.39,3.39,5.06,6.24,10.36,6.93,15.89.59,4.73-.5,9.66-3.93,13.9-3.44,4.26-9.19,7.31-15.93,9.27-6.76,1.96-14.13,2.9-21.41,3.68-8.19.87-16.81,1.49-24.92.02-14.55-2.64-22.7-11.65-32.44-18.31-10.29-7.04-22.83-12.85-36.96-16.27-14.11-3.41-32.38-4.22-40.83-13.44-1.72-1.88-2.73-3.97-2.77-6.16,0-.17-.42-.17-.42,0,.09,4.46,4.15,8.35,9.39,11.09,6.15,3.23,13.86,4.77,21.39,6.14,4.08.74,8.17,1.45,12.16,2.38,3.77.88,7.43,1.93,10.98,3.13,7.03,2.39,13.56,5.36,19.5,8.75s10.74,7.01,15.69,10.79c4.6,3.52,9.39,7.07,15.46,9.58,6.76,2.8,14.57,3.65,22.51,3.41,4.25-.13,8.48-.53,12.67-1,3.64-.4,7.28-.86,10.85-1.47,6.93-1.18,13.8-2.99,19.15-6.14,5.44-3.2,8.64-7.63,9.85-12.26,1.32-5.06.29-10.2-1.93-15.09-1.18-2.6-2.69-5.14-4.34-7.63s-3.24-4.81-5.2-7.09c-1.73-2.01-3.78-3.95-6.44-5.51s-6-2.65-9.57-3.18c-7.96-1.17-16.07.17-23.64,1.75-4.25.89-8.47,1.86-12.83,2.53-4.04.62-8.18.98-12.33,1.08-8.33.2-16.7-.64-24.53-2.47-8-1.87-14.82-5.06-22.26-7.64-6.11-2.12-12.59-3.46-19.58-3.48-12.55-.04-25.17,3.7-33.06,9.99-1.89,1.51-3.48,3.15-4.74,4.9-.11.16.25.29.36.13h0Z"/>
        <path class="cls-1" d="M66.41,73.18c5.58-7.99,17.39-13.56,30.29-15.3,6.42-.87,13.16-.78,19.47.45,8,1.56,14.83,4.88,21.99,7.59,14.37,5.43,31.36,7.35,47.6,5.08,8.72-1.22,16.88-3.81,25.66-4.88,7.98-.97,16.81-.57,23.18,3.09,5.98,3.42,9.17,8.63,12.21,13.32,3.53,5.44,6.5,11.14,7.22,17.08.62,5.08-.52,10.38-4.09,14.94-3.58,4.58-9.57,7.86-16.6,9.96-7.04,2.11-14.72,3.12-22.3,3.95-8.53.94-17.51,1.6-25.96.02-15.16-2.84-23.64-12.53-33.79-19.69-10.72-7.57-23.78-13.82-38.5-17.49-14.7-3.67-33.73-4.54-42.53-14.45-1.79-2.02-2.85-4.27-2.89-6.62,0-.18-.44-.19-.43,0,.09,4.79,4.32,8.97,9.78,11.93,6.41,3.47,14.43,5.13,22.28,6.61,4.25.8,8.51,1.56,12.66,2.56,3.92.94,7.74,2.07,11.43,3.37,7.32,2.57,14.12,5.76,20.31,9.4s11.19,7.54,16.34,11.61c4.79,3.78,9.78,7.6,16.11,10.3,7.04,3.01,15.18,3.93,23.45,3.66,4.43-.14,8.83-.57,13.2-1.07,3.8-.43,7.58-.92,11.3-1.58,7.22-1.27,14.38-3.21,19.95-6.6,5.66-3.45,9-8.2,10.26-13.18,1.37-5.44.31-10.97-2.01-16.23-1.23-2.8-2.8-5.53-4.52-8.21s-3.37-5.17-5.41-7.63c-1.8-2.16-3.93-4.25-6.71-5.92s-6.25-2.85-9.97-3.41c-8.29-1.26-16.73.18-24.62,1.89-4.43.96-8.83,2-13.36,2.73-4.21.67-8.52,1.06-12.84,1.16-8.67.22-17.4-.69-25.55-2.65-8.34-2.01-15.44-5.44-23.18-8.21-6.36-2.28-13.11-3.72-20.4-3.74-13.08-.04-26.22,3.98-34.43,10.74-1.96,1.62-3.63,3.39-4.94,5.27-.12.17.26.31.37.14h0Z"/>
        <path class="cls-1" d="M62.5,71.67c5.81-8.59,18.12-14.58,31.55-16.45,6.69-.93,13.71-.84,20.28.49,8.34,1.68,15.45,5.25,22.91,8.16,14.96,5.83,32.67,7.91,49.58,5.46,9.09-1.31,17.58-4.09,26.73-5.24,8.31-1.04,17.51-.61,24.15,3.32,6.23,3.68,9.55,9.28,12.72,14.32,3.68,5.85,6.77,11.98,7.52,18.37.64,5.47-.55,11.16-4.26,16.07-3.73,4.92-9.97,8.46-17.29,10.71-7.34,2.26-15.33,3.35-23.23,4.25-8.88,1.01-18.24,1.72-27.04.02-15.79-3.05-24.63-13.47-35.19-21.17-11.17-8.14-24.77-14.86-40.11-18.81-15.31-3.95-35.13-4.88-44.31-15.54-1.87-2.17-2.96-4.6-3.01-7.12,0-.2-.46-.2-.45,0,.09,5.15,4.5,9.65,10.18,12.83,6.68,3.74,15.04,5.52,23.21,7.1,4.42.86,8.87,1.68,13.19,2.75,4.09,1.01,8.07,2.23,11.91,3.62,7.63,2.76,14.71,6.2,21.15,10.11s11.65,8.1,17.02,12.48c4.99,4.07,10.19,8.17,16.78,11.08,7.33,3.23,15.81,4.23,24.42,3.94,4.62-.15,9.2-.62,13.75-1.15,3.95-.46,7.9-.99,11.78-1.7,7.52-1.37,14.98-3.46,20.78-7.1,5.9-3.7,9.37-8.82,10.69-14.17,1.43-5.85.32-11.79-2.1-17.45-1.28-3.01-2.92-5.94-4.71-8.83s-3.51-5.56-5.64-8.2c-1.87-2.33-4.1-4.57-6.99-6.37s-6.51-3.06-10.38-3.67c-8.64-1.35-17.43.2-25.65,2.03-4.61,1.03-9.19,2.15-13.92,2.93-4.38.72-8.87,1.14-13.38,1.25-9.03.23-18.12-.74-26.62-2.85-8.68-2.16-16.08-5.85-24.15-8.83-6.63-2.45-13.66-4-21.25-4.03-13.62-.04-27.32,4.28-35.87,11.55-2.05,1.74-3.78,3.64-5.15,5.67-.12.18.27.34.39.16h0Z"/>
        <path class="cls-1" d="M58.42,70.03c6.05-9.24,18.87-15.67,32.86-17.69,6.97-1,14.28-.9,21.12.52,8.68,1.8,16.09,5.65,23.86,8.77,15.59,6.27,34.03,8.5,51.65,5.88,9.47-1.41,18.32-4.4,27.84-5.64,8.66-1.12,18.24-.65,25.16,3.57,6.49,3.96,9.95,9.97,13.25,15.4,3.83,6.29,7.05,12.88,7.83,19.75.67,5.88-.57,12-4.44,17.28-3.88,5.29-10.38,9.09-18.01,11.52-7.64,2.43-15.97,3.61-24.2,4.57-9.25,1.08-18.99,1.85-28.16.02-16.45-3.28-25.65-14.49-36.66-22.77-11.63-8.75-25.8-15.98-41.78-20.23-15.95-4.24-36.6-5.25-46.15-16.71-1.94-2.33-3.09-4.94-3.14-7.65,0-.21-.47-.21-.47,0,.1,5.54,4.69,10.38,10.61,13.79,6.96,4.02,15.66,5.93,24.18,7.64,4.61.92,9.24,1.81,13.74,2.96,4.26,1.09,8.4,2.4,12.41,3.89,7.94,2.97,15.32,6.66,22.04,10.87,6.52,4.09,12.14,8.71,17.73,13.42,5.2,4.37,10.62,8.79,17.48,11.91,7.64,3.48,16.47,4.54,25.44,4.23,4.81-.17,9.58-.66,14.32-1.24,4.12-.5,8.23-1.07,12.27-1.83,7.83-1.47,15.6-3.72,21.64-7.63,6.15-3.98,9.76-9.49,11.13-15.24,1.49-6.29.33-12.68-2.18-18.76-1.34-3.24-3.04-6.39-4.91-9.49s-3.66-5.98-5.87-8.82c-1.95-2.5-4.27-4.91-7.28-6.85-3.06-1.97-6.78-3.3-10.82-3.95-9-1.46-18.16.21-26.72,2.18-4.81,1.11-9.58,2.32-14.5,3.15-4.57.77-9.24,1.22-13.93,1.35-9.41.25-18.88-.79-27.73-3.07s-16.75-6.29-25.16-9.49c-6.91-2.64-14.23-4.3-22.13-4.33-14.19-.05-28.45,4.6-37.36,12.42-2.13,1.87-3.93,3.91-5.36,6.09-.13.19.28.36.41.17h0Z"/>
        <path class="cls-1" d="M54.18,68.27c6.31-9.93,19.66-16.85,34.23-19.02,7.26-1.08,14.88-.97,22,.56,9.04,1.94,16.76,6.07,24.86,9.44,16.24,6.75,35.45,9.14,53.8,6.32,9.86-1.52,19.08-4.73,29-6.06,9.02-1.21,19-.7,26.21,3.84,6.76,4.26,10.36,10.72,13.81,16.56,3.99,6.76,7.35,13.85,8.16,21.24.7,6.32-.59,12.91-4.62,18.58-4.05,5.69-10.82,9.78-18.76,12.39-7.96,2.62-16.64,3.88-25.21,4.91-9.64,1.16-19.79,1.99-29.34.02-17.13-3.53-26.72-15.58-38.19-24.48-12.12-9.41-26.88-17.18-43.52-21.75-16.61-4.56-38.12-5.64-48.07-17.96-2.03-2.51-3.22-5.31-3.27-8.23,0-.23-.49-.23-.49,0,.1,5.96,4.89,11.16,11.05,14.83,7.25,4.32,16.31,6.38,25.18,8.21,4.8.99,9.62,1.94,14.31,3.18,4.44,1.17,8.75,2.58,12.92,4.19,8.27,3.19,15.96,7.16,22.95,11.69,6.79,4.4,12.65,9.37,18.47,14.43,5.41,4.7,11.06,9.45,18.2,12.81,7.95,3.74,17.15,4.89,26.5,4.55,5.01-.18,9.98-.71,14.92-1.33,4.29-.54,8.57-1.15,12.78-1.96,8.16-1.58,16.25-4,22.54-8.2s10.17-10.2,11.59-16.39c1.55-6.76.35-13.63-2.27-20.17-1.39-3.48-3.17-6.87-5.11-10.2s-3.81-6.42-6.12-9.48c-2.03-2.69-4.45-5.28-7.58-7.36s-7.07-3.54-11.27-4.24c-9.37-1.57-18.91.23-27.83,2.34-5.01,1.19-9.98,2.49-15.1,3.39-4.76.83-9.63,1.31-14.51,1.45-9.8.27-19.67-.85-28.88-3.3-9.42-2.5-17.45-6.76-26.2-10.21-7.19-2.84-14.82-4.63-23.05-4.65-14.78-.05-29.64,4.95-38.92,13.36-2.22,2.01-4.1,4.21-5.59,6.55-.13.21.29.39.42.18h0Z"/>
        <path class="cls-1" d="M49.76,66.38c6.57-10.68,20.48-18.12,35.66-20.45,7.56-1.16,15.5-1.04,22.92.6,9.42,2.08,17.46,6.53,25.89,10.15,16.91,7.25,36.93,9.83,56.04,6.79,10.27-1.63,19.87-5.09,30.21-6.52,9.39-1.3,19.79-.76,27.3,4.13,7.04,4.58,10.79,11.53,14.38,17.81,4.16,7.27,7.65,14.9,8.5,22.83.72,6.8-.62,13.88-4.82,19.98s-11.27,10.51-19.54,13.32c-8.29,2.81-17.33,4.17-26.26,5.28-10.04,1.25-20.61,2.14-30.56.02-17.85-3.79-27.84-16.75-39.78-26.32-12.62-10.12-28-18.47-45.33-23.39s-39.71-6.07-50.08-19.32c-2.11-2.7-3.35-5.71-3.4-8.85,0-.25-.52-.25-.51,0,.11,6.4,5.09,12,11.51,15.95,7.55,4.64,16.99,6.86,26.23,8.83,5,1.07,10.02,2.09,14.91,3.42,4.62,1.26,9.12,2.77,13.46,4.5,8.62,3.43,16.63,7.7,23.91,12.57,7.07,4.73,13.17,10.08,19.24,15.52,5.64,5.06,11.52,10.16,18.96,13.77,8.29,4.02,17.87,5.25,27.6,4.9,5.22-.19,10.39-.77,15.54-1.43,4.47-.58,8.93-1.23,13.31-2.11,8.5-1.7,16.93-4.3,23.48-8.82,6.67-4.61,10.6-10.97,12.08-17.62,1.62-7.27.36-14.66-2.37-21.69-1.45-3.74-3.3-7.39-5.33-10.97s-3.97-6.91-6.37-10.19c-2.12-2.89-4.63-5.68-7.9-7.91-3.32-2.28-7.36-3.81-11.74-4.56-9.77-1.68-19.7.24-28.99,2.52-5.22,1.28-10.39,2.68-15.73,3.64-4.96.9-10.03,1.41-15.12,1.56-10.21.29-20.49-.92-30.09-3.55s-18.18-7.27-27.3-10.98c-7.49-3.05-15.44-4.97-24.01-5-15.4-.05-30.87,5.32-40.54,14.36-2.31,2.16-4.27,4.53-5.82,7.04-.14.22.3.42.44.19h0Z"/>
        <path class="cls-1" d="M45.15,64.35c6.84-11.49,21.33-19.49,37.14-21.99,7.88-1.25,16.14-1.12,23.87.65,9.81,2.24,18.19,7.02,26.97,10.91,17.62,7.8,38.46,10.57,58.37,7.3,10.7-1.76,20.7-5.47,31.47-7.01,9.79-1.4,20.61-.81,28.43,4.44,7.33,4.92,11.24,12.4,14.98,19.15,4.33,7.82,7.97,16.02,8.85,24.55.75,7.31-.64,14.92-5.02,21.48-4.39,6.58-11.74,11.3-20.35,14.32-8.64,3.03-18.05,4.48-27.35,5.68-10.46,1.35-21.47,2.3-31.83.03-18.59-4.08-29-18.01-41.44-28.31-13.15-10.88-29.17-19.86-47.22-25.15s-41.36-6.52-52.16-20.77c-2.2-2.9-3.49-6.14-3.54-9.52,0-.27-.54-.27-.53,0,.11,6.89,5.3,12.9,11.99,17.15,7.86,4.99,17.7,7.37,27.33,9.5,5.21,1.15,10.44,2.25,15.53,3.68,4.81,1.36,9.5,2.98,14.02,4.84,8.98,3.69,17.32,8.28,24.91,13.52,7.37,5.08,13.72,10.83,20.04,16.68,5.87,5.44,12,10.92,19.75,14.81,8.63,4.32,18.61,5.65,28.75,5.26,5.43-.21,10.83-.83,16.18-1.54,4.66-.62,9.3-1.32,13.86-2.27,8.85-1.83,17.64-4.62,24.46-9.49,6.95-4.95,11.04-11.79,12.58-18.95,1.69-7.82.37-15.76-2.47-23.32-1.51-4.02-3.44-7.94-5.55-11.8s-4.13-7.43-6.64-10.96c-2.21-3.11-4.82-6.11-8.22-8.51s-7.67-4.1-12.23-4.91c-10.17-1.81-20.52.26-30.2,2.71-5.43,1.38-10.82,2.88-16.39,3.92-5.16.96-10.44,1.52-15.75,1.67-10.64.31-21.34-.99-31.34-3.82-10.22-2.89-18.94-7.81-28.43-11.8-7.81-3.28-16.08-5.35-25.01-5.38-16.04-.06-32.16,5.72-42.23,15.44-2.41,2.33-4.45,4.87-6.06,7.57-.14.24.32.45.46.21h0Z"/>
        <path class="cls-1" d="M40.35,62.17c7.13-12.35,22.22-20.95,38.69-23.64,8.21-1.34,16.82-1.2,24.87.7,10.22,2.41,18.94,7.55,28.1,11.73,18.35,8.39,40.07,11.37,60.81,7.85,11.15-1.89,21.56-5.89,32.78-7.54,10.19-1.5,21.47-.87,29.62,4.77,7.64,5.29,11.71,13.33,15.6,20.59,4.51,8.41,8.31,17.22,9.22,26.4.79,7.86-.67,16.05-5.23,23.1-4.57,7.07-12.23,12.15-21.2,15.4-9,3.25-18.81,4.82-28.49,6.11-10.89,1.45-22.36,2.47-33.16.03-19.37-4.39-30.2-19.37-43.16-30.44-13.7-11.7-30.38-21.36-49.19-27.04s-43.09-7.02-54.34-22.33c-2.29-3.12-3.64-6.61-3.69-10.23,0-.29-.56-.29-.55,0,.12,7.41,5.52,13.87,12.49,18.44,8.19,5.37,18.44,7.93,28.46,10.21,5.42,1.24,10.87,2.41,16.18,3.96,5.01,1.46,9.89,3.21,14.61,5.21,9.35,3.97,18.04,8.91,25.94,14.54s14.29,11.65,20.87,17.94c6.12,5.85,12.5,11.75,20.57,15.92,8.99,4.65,19.39,6.07,29.95,5.66,5.66-.22,11.28-.89,16.86-1.66,4.85-.67,9.68-1.42,14.44-2.44,9.22-1.97,18.37-4.97,25.48-10.2s11.5-12.68,13.1-20.37c1.76-8.4.39-16.95-2.57-25.08-1.58-4.32-3.58-8.54-5.78-12.69s-4.31-7.99-6.92-11.79c-2.3-3.35-5.02-6.57-8.57-9.15s-7.99-4.41-12.73-5.28c-10.6-1.95-21.38.28-31.46,2.92-5.66,1.48-11.28,3.1-17.07,4.21-5.38,1.04-10.88,1.63-16.41,1.8-11.08.33-22.23-1.06-32.64-4.1-10.65-3.11-19.73-8.4-29.62-12.69-8.13-3.53-16.75-5.75-26.06-5.79-16.71-.06-33.5,6.15-43.99,16.61-2.51,2.5-4.63,5.23-6.31,8.14-.15.26.33.48.48.22h0Z"/>
        <path class="cls-1" d="M35.35,59.82c7.43-13.28,23.14-22.53,40.3-25.42,8.55-1.44,17.52-1.29,25.9.75,10.65,2.59,19.73,8.12,29.27,12.61,19.12,9.02,41.74,12.22,63.34,8.44,11.61-2.03,22.46-6.33,34.15-8.1,10.62-1.61,22.37-.94,30.85,5.13,7.95,5.69,12.2,14.34,16.25,22.14,4.7,9.04,8.65,18.52,9.61,28.39.82,8.45-.7,17.26-5.45,24.84-4.76,7.61-12.73,13.07-22.09,16.56-9.37,3.5-19.59,5.19-29.68,6.57-11.35,1.56-23.3,2.66-34.54.03-20.17-4.72-31.46-20.82-44.96-32.73-14.27-12.58-31.65-22.97-51.24-29.07-19.56-6.1-44.88-7.54-56.6-24.01-2.39-3.35-3.79-7.1-3.85-11,0-.31-.58-.31-.58,0,.12,7.96,5.75,14.91,13.01,19.83,8.53,5.77,19.21,8.53,29.65,10.98,5.65,1.33,11.33,2.6,16.85,4.25,5.22,1.57,10.31,3.45,15.22,5.6,9.74,4.27,18.79,9.58,27.03,15.63s14.89,12.53,21.74,19.29c6.37,6.29,13.02,12.63,21.43,17.12,9.37,5,20.2,6.53,31.2,6.09,5.9-.24,11.75-.96,17.56-1.78,5.05-.72,10.09-1.53,15.04-2.62,9.61-2.12,19.14-5.34,26.54-10.97s11.98-13.64,13.65-21.91c1.83-9.04.41-18.23-2.68-26.97-1.64-4.65-3.73-9.18-6.02-13.64s-4.49-8.59-7.21-12.67c-2.39-3.6-5.23-7.06-8.92-9.84s-8.32-4.74-13.27-5.67c-11.04-2.09-22.27.3-32.77,3.13-5.9,1.59-11.75,3.33-17.78,4.53-5.6,1.11-11.33,1.76-17.09,1.94-11.54.36-23.15-1.14-34.01-4.41s-20.55-9.04-30.85-13.65c-8.47-3.79-17.45-6.18-27.14-6.22-17.4-.07-34.9,6.61-45.82,17.86-2.61,2.69-4.82,5.63-6.58,8.76-.15.28.34.52.5.24h0Z"/>
        <path class="cls-1" d="M30.15,57.29c7.73-14.28,24.11-24.23,41.98-27.34,8.9-1.55,18.25-1.39,26.98.81,11.09,2.79,20.56,8.73,30.49,13.56,19.91,9.7,43.48,13.14,65.98,9.08,12.09-2.18,23.4-6.8,35.57-8.71,11.06-1.73,23.3-1.01,32.14,5.52,8.29,6.12,12.71,15.42,16.93,23.81,4.89,9.72,9.01,19.91,10.01,30.52.85,9.09-.73,18.55-5.67,26.71s-13.27,14.05-23.01,17.81c-9.76,3.76-20.41,5.58-30.92,7.06-11.82,1.67-24.27,2.86-35.98.03-21.01-5.07-32.77-22.39-46.84-35.19-14.86-13.53-32.96-24.69-53.37-31.26-20.38-6.56-46.75-8.11-58.96-25.82-2.48-3.6-3.94-7.64-4.01-11.83,0-.33-.61-.33-.6,0,.13,8.56,5.99,16.04,13.55,21.32,8.89,6.21,20.01,9.17,30.89,11.81,5.89,1.43,11.8,2.79,17.55,4.57,5.44,1.69,10.74,3.71,15.85,6.02,10.15,4.59,19.57,10.3,28.15,16.81,8.33,6.32,15.51,13.47,22.65,20.74,6.64,6.76,13.56,13.58,22.33,18.41,9.76,5.37,21.04,7.02,32.5,6.54,6.14-.26,12.24-1.03,18.29-1.91,5.26-.77,10.51-1.65,15.67-2.82,10.01-2.28,19.93-5.74,27.65-11.79s12.48-14.66,14.22-23.56c1.91-9.72.42-19.6-2.79-29-1.71-5-3.88-9.88-6.27-14.67s-4.67-9.24-7.51-13.63c-2.49-3.87-5.45-7.59-9.3-10.58s-8.67-5.09-13.82-6.1c-11.5-2.25-23.2.33-34.13,3.37-6.14,1.71-12.23,3.58-18.52,4.87-5.83,1.2-11.8,1.89-17.8,2.08-12.02.39-24.12-1.23-35.42-4.74s-21.4-9.72-32.14-14.68c-8.82-4.08-18.18-6.65-28.27-6.69-18.13-.07-36.35,7.11-47.73,19.2-2.72,2.89-5.03,6.05-6.85,9.42-.16.3.36.56.52.26h0Z"/>
        <path class="cls-1" d="M24.72,54.58c8.06-15.35,25.11-26.05,43.73-29.39,9.27-1.67,19.01-1.49,28.11.87,11.56,3,21.41,9.39,31.76,14.58,20.74,10.43,45.29,14.13,68.73,9.76,12.6-2.35,24.37-7.32,37.05-9.37,11.52-1.87,24.27-1.09,33.48,5.93,8.63,6.58,13.24,16.58,17.64,25.6,5.1,10.45,9.39,21.41,10.43,32.82.89,9.77-.76,19.95-5.91,28.72s-13.82,15.11-23.96,19.15c-10.17,4.05-21.26,6-32.21,7.59-12.31,1.8-25.28,3.07-37.48.03-21.89-5.45-34.14-24.08-48.79-37.84-15.48-14.55-34.34-26.55-55.6-33.62-21.23-7.05-48.7-8.72-61.42-27.76-2.59-3.88-4.11-8.21-4.17-12.72,0-.35-.63-.36-.63,0,.13,9.21,6.24,17.24,14.12,22.92,9.26,6.68,20.84,9.86,32.17,12.7,6.13,1.54,12.29,3,18.29,4.92,5.67,1.81,11.18,3.99,16.51,6.47,10.57,4.93,20.39,11.07,29.32,18.07,8.68,6.8,16.15,14.48,23.59,22.3,6.92,7.27,14.13,14.6,23.26,19.79,10.16,5.78,21.91,7.55,33.85,7.04,6.4-.28,12.75-1.1,19.06-2.06,5.48-.83,10.95-1.77,16.32-3.03,10.42-2.45,20.76-6.18,28.8-12.68,8.18-6.62,12.99-15.77,14.81-25.33,1.98-10.45.44-21.07-2.91-31.18-1.78-5.38-4.05-10.62-6.53-15.77s-4.87-9.93-7.82-14.65c-2.6-4.16-5.68-8.16-9.68-11.38s-9.03-5.48-14.39-6.56c-11.98-2.42-24.16.35-35.55,3.62-6.4,1.84-12.74,3.85-19.29,5.24-6.08,1.29-12.3,2.03-18.54,2.24-12.52.41-25.12-1.32-36.9-5.1s-22.3-10.45-33.48-15.78c-9.19-4.38-18.94-7.15-29.45-7.19-18.88-.08-37.87,7.65-49.72,20.65-2.84,3.11-5.24,6.5-7.14,10.13-.17.32.37.6.54.28h0Z"/>
        <path class="cls-1" d="M19.08,51.66c8.39-16.51,26.16-28.01,45.55-31.61,9.66-1.79,19.8-1.61,29.28.93,12.04,3.22,22.3,10.09,33.08,15.68,21.61,11.21,47.17,15.19,71.59,10.5,13.12-2.52,25.39-7.87,38.6-10.08,12-2.01,25.28-1.17,34.87,6.38,8.99,7.07,13.79,17.82,18.37,27.53,5.31,11.24,9.78,23.03,10.86,35.29.93,10.5-.79,21.45-6.15,30.88s-14.39,16.25-24.96,20.59c-10.59,4.35-22.14,6.45-33.55,8.17-12.83,1.93-26.33,3.31-39.04.04-22.8-5.86-35.56-25.89-50.82-40.69-16.13-15.64-35.77-28.55-57.91-36.15s-50.73-9.38-63.98-29.85c-2.7-4.17-4.28-8.83-4.35-13.68,0-.38-.66-.38-.65,0,.14,9.9,6.5,18.54,14.71,24.65,9.64,7.18,21.71,10.6,33.51,13.65,6.39,1.65,12.8,3.23,19.05,5.29,5.9,1.95,11.65,4.29,17.2,6.96,11.01,5.3,21.24,11.91,30.55,19.43,9.04,7.31,16.83,15.57,24.58,23.98,7.2,7.82,14.72,15.7,24.22,21.28,10.59,6.21,22.83,8.12,35.27,7.57,6.66-.3,13.28-1.19,19.85-2.21,5.71-.89,11.4-1.9,17-3.26,10.86-2.63,21.63-6.64,30-13.64,8.52-7.12,13.54-16.95,15.43-27.24,2.07-11.23.46-22.66-3.03-33.52-1.86-5.78-4.21-11.42-6.8-16.96s-5.07-10.68-8.14-15.76c-2.71-4.47-5.92-8.78-10.09-12.23s-9.4-5.89-14.99-7.05c-12.48-2.6-25.17.38-37.03,3.9-6.66,1.98-13.28,4.14-20.1,5.63-6.33,1.38-12.81,2.18-19.32,2.41-13.04.45-26.17-1.42-38.44-5.48s-23.23-11.23-34.87-16.97c-9.57-4.71-19.73-7.69-30.68-7.73-19.67-.08-39.44,8.22-51.79,22.2-2.95,3.34-5.45,6.99-7.43,10.89-.18.34.39.65.56.3h0Z"/>
        <path class="cls-1" d="M13.19,48.52c8.74-17.75,27.25-30.12,47.45-33.99,10.06-1.93,20.62-1.73,30.5,1,12.54,3.46,23.23,10.85,34.46,16.86,22.51,12.05,49.14,16.34,74.58,11.29,13.67-2.71,26.45-8.46,40.2-10.83,12.5-2.16,26.33-1.26,36.33,6.86,9.36,7.61,14.36,19.16,19.14,29.6,5.53,12.08,10.19,24.76,11.31,37.95.96,11.3-.82,23.07-6.41,33.2s-14.99,17.47-26,22.14c-11.03,4.68-23.07,6.93-34.95,8.78-13.36,2.08-27.43,3.55-40.67.04-23.75-6.3-37.04-27.84-52.94-43.75-16.8-16.82-37.26-30.7-60.32-38.87-23.03-8.16-52.85-10.08-66.64-32.1-2.81-4.48-4.46-9.49-4.53-14.71,0-.41-.69-.41-.68,0,.14,10.64,6.78,19.94,15.32,26.5,10.05,7.72,22.61,11.4,34.91,14.68,6.65,1.78,13.34,3.47,19.84,5.69,6.15,2.1,12.13,4.61,17.91,7.48,11.47,5.7,22.12,12.8,31.82,20.89,9.41,7.86,17.53,16.74,25.6,25.79,7.5,8.41,15.33,16.89,25.23,22.88,11.03,6.68,23.78,8.73,36.73,8.14,6.94-.32,13.83-1.28,20.68-2.38,5.95-.96,11.88-2.05,17.71-3.51,11.31-2.83,22.53-7.14,31.25-14.66s14.1-18.23,16.07-29.29c2.15-12.08.48-24.37-3.15-36.05-1.93-6.22-4.39-12.28-7.09-18.23s-5.28-11.48-8.48-16.94c-2.82-4.81-6.16-9.44-10.51-13.15s-9.8-6.33-15.62-7.59c-13-2.8-26.22.41-38.58,4.19-6.94,2.13-13.83,4.45-20.94,6.06-6.59,1.49-13.34,2.35-20.12,2.59-13.59.48-27.26-1.52-40.04-5.9s-24.19-12.08-36.32-18.24c-9.97-5.07-20.55-8.27-31.96-8.32-20.49-.09-41.09,8.84-53.95,23.87-3.08,3.6-5.68,7.52-7.74,11.71-.18.37.4.69.59.32h0Z"/>
        <path class="cls-1" d="M7.06,45.14C16.17,26.05,35.44,12.75,56.49,8.59c10.48-2.07,21.48-1.86,31.77,1.08,13.06,3.73,24.2,11.67,35.89,18.13,23.45,12.96,51.19,17.57,77.68,12.14,14.24-2.92,27.55-9.1,41.88-11.65,13.02-2.32,27.43-1.35,37.84,7.38,9.75,8.18,14.96,20.61,19.93,31.82,5.76,12.99,10.61,26.62,11.78,40.8,1,12.15-.85,24.8-6.68,35.7-5.84,10.93-15.62,18.79-27.09,23.8-11.49,5.03-24.03,7.45-36.4,9.44-13.92,2.24-28.57,3.82-42.36.04-24.74-6.78-38.59-29.93-55.14-47.04-17.5-18.08-38.81-33.01-62.84-41.79S27.71,77.61,13.34,53.94c-2.93-4.82-4.64-10.21-4.72-15.81,0-.44-.71-.44-.71,0,.15,11.45,7.06,21.44,15.96,28.5,10.46,8.3,23.56,12.25,36.36,15.78,6.93,1.91,13.89,3.73,20.67,6.12,6.41,2.25,12.64,4.96,18.66,8.05,11.95,6.13,23.05,13.77,33.15,22.47,9.81,8.45,18.26,18.01,26.67,27.73,7.82,9.04,15.97,18.16,26.29,24.61,11.49,7.18,24.77,9.39,38.27,8.75,7.23-.34,14.41-1.37,21.54-2.56,6.2-1.03,12.37-2.2,18.45-3.77,11.78-3.04,23.47-7.68,32.55-15.77,9.24-8.23,14.69-19.6,16.74-31.49,2.24-12.99.5-26.2-3.28-38.76-2.01-6.68-4.57-13.2-7.38-19.61s-5.5-12.35-8.84-18.22c-2.94-5.17-6.42-10.15-10.94-14.14s-10.2-6.81-16.27-8.16c-13.54-3.01-27.31.44-40.19,4.51-7.23,2.29-14.4,4.79-21.81,6.51-6.87,1.6-13.9,2.53-20.96,2.78-14.15.52-28.4-1.64-41.71-6.34s-25.2-12.99-37.84-19.62c-10.39-5.45-21.4-8.89-33.29-8.94-21.34-.1-42.8,9.51-56.2,25.67-3.21,3.87-5.92,8.09-8.06,12.59-.19.4.42.75.61.35h0Z"/>
        <path class="cls-1" d="M.67,41.51C10.16,20.98,30.24,6.69,52.16,2.21,63.08-.01,74.54.22,85.26,3.37c13.6,4.01,25.21,12.55,37.39,19.49,24.42,13.94,53.32,18.89,80.92,13.05,14.83-3.14,28.7-9.78,43.62-12.53,13.57-2.49,28.57-1.45,39.42,7.93,10.16,8.79,15.58,22.16,20.77,34.22,6,13.97,11.05,28.63,12.27,43.88,1.05,13.06-.89,26.67-6.96,38.39s-16.27,20.2-28.22,25.6c-11.97,5.41-25.03,8.01-37.92,10.15-14.5,2.4-29.76,4.11-44.13.05-25.77-7.29-40.2-32.18-57.44-50.58-18.23-19.45-40.43-35.5-65.46-44.94S22.19,76.42,7.22,50.97c-3.05-5.18-4.84-10.98-4.91-17,0-.47-.74-.48-.74,0,.15,12.31,7.35,23.05,16.62,30.64,10.9,8.92,24.54,13.18,37.88,16.97,7.22,2.05,14.47,4.01,21.53,6.58,6.67,2.42,13.17,5.33,19.44,8.65,12.45,6.59,24.01,14.8,34.53,24.16,10.22,9.09,19.02,19.36,27.78,29.81,8.14,9.72,16.63,19.52,27.38,26.46,11.96,7.72,25.8,10.09,39.86,9.41,7.53-.37,15.01-1.48,22.43-2.75,6.45-1.11,12.89-2.37,19.22-4.06,12.27-3.27,24.45-8.25,33.91-16.95s15.3-21.08,17.44-33.86c2.34-13.97.52-28.17-3.42-41.68-2.1-7.19-4.76-14.2-7.69-21.08s-5.73-13.27-9.2-19.59c-3.06-5.56-6.69-10.91-11.4-15.21s-10.63-7.32-16.95-8.77c-14.1-3.23-28.45.47-41.86,4.85-7.53,2.46-15,5.15-22.72,7-7.16,1.72-14.48,2.72-21.83,2.99-14.74.55-29.58-1.76-43.44-6.82s-26.25-13.97-39.41-21.09C90.83,3.76,79.36.06,66.98,0,44.75-.1,22.4,10.22,8.44,27.6,5.1,31.76,2.27,36.3.04,41.14c-.2.43.44.8.64.37h0Z"/>
      </g>
    </g>
  </g>
</svg>