<?xml version="1.0" encoding="UTF-8"?>
<svg id="Layer_2" data-name="Layer 2" xmlns="http://www.w3.org/2000/svg" viewBox="0 0 308.38 308.38">
  <defs>
    <style>
      .cls-1 {
        fill: #cddc3d;
      }

      .cls-2 {
        fill: #1f1f1f;
      }
    </style>
  </defs>
  <g id="Layer_1-2" data-name="Layer 1">
    <circle class="cls-1" cx="154.19" cy="154.19" r="154.19"/>
    <g id="AzMH48.tif">
      <g>
        <path class="cls-2" d="M250.4,112.86c-2.51.62-.9-2.28-2.78-3.17-10.37-4.94-24.29-3.79-28.31,8.47-7.22,21.96,15.57,34.24,31.09,20.6-17.35,47.42-87.63,20.85-69.85-26.99,11.81-31.78,59.89-31.34,69.85,1.1Z"/>
        <path class="cls-2" d="M130.69,112.86c-2.51.62-.9-2.28-2.78-3.17-9.86-4.69-24.74-3.61-28.68,8.11-7.35,21.9,16,34.77,31.46,20.96-17.27,47.05-87.67,20.95-69.85-26.99,11.81-31.78,59.89-31.34,69.85,1.1Z"/>
        <path class="cls-2" d="M82.17,174.32c2.02,49.66,49.53,82.79,97.05,65.49,22.3-8.12,39.47-29.24,44.94-52.11,1.19-4.99-2.01-13.48,5.22-13.36-.08,59.47-69.26,95.83-118.62,61.17-17.92-12.59-32.19-36.59-33.46-58.77-.23-4.05,2.14-2.16,4.86-2.42Z"/>
        <path class="cls-2" d="M163.06,101.55v105.12h-31.55c-1.05,0-3.1-3.47-2.43-4.85h29.12v-100.26h4.85Z"/>
      </g>
    </g>
  </g>
</svg>